<?xml version="1.0" encoding="utf-8"?>
<!-- Generator: Adobe Illustrator 27.5.0, SVG Export Plug-In . SVG Version: 6.00 Build 0)  -->
<svg version="1.1" xmlns="http://www.w3.org/2000/svg" xmlns:xlink="http://www.w3.org/1999/xlink" x="0px" y="0px"
	 viewBox="0 0 750 500" style="enable-background:new 0 0 750 500;" xml:space="preserve">
<g id="BACKGROUND">
	<rect style="fill:#979EED;" width="750" height="500"/>
</g>
<g id="OBJECTS">
	<g>
		<path style="fill:#7F84DE;" d="M132.091,121.1c5.333-28.849-2.497-51.274-30.913-64.556
			C105.815,88.18,114.101,110.395,132.091,121.1z"/>
		<path style="fill:#7F84DE;" d="M107.434,241.325c-14.443-18.107-32.138-25.205-55.459-15.554
			C73.476,239.518,91.291,246.241,107.434,241.325z"/>
		<path style="fill:#7F84DE;" d="M73.861,248.133c-14.444-18.107-52.115-21.335-52.115-21.335S46.077,261.544,73.861,248.133z"/>
		<path style="fill:#7F84DE;" d="M94.877,292.663c-12.021-26.532-31.367-40.492-62.685-35.527
			C54.132,280.396,73.738,293.93,94.877,292.663z"/>
		<path style="fill:#7F84DE;" d="M186.091,315.411c-11.31-17.412-26.473-25.249-48.105-18.576
			C155.968,310.94,171.271,318.452,186.091,315.411z"/>
		<path style="fill:#7F84DE;" d="M128.566,284.47c-8.673-14.324-17.197-20.328-37.313-24.073
			C98.029,277.776,108.476,288.648,128.566,284.47z"/>
		<path style="fill:#7F84DE;" d="M121.087,320.941c-21.546-13.564-37.454-16.591-68.192-10.44
			C73.767,328.992,95.555,337.186,121.087,320.941z"/>
		<path style="fill:#7F84DE;" d="M173.959,194.463c16.904-24.314,19.221-48.082-0.902-71.823
			C163.997,153.565,162.181,177.324,173.959,194.463z"/>
		<path style="fill:#7F84DE;" d="M204.481,306.346c-26.447-12.832-27.653-61.493-27.653-61.493S216.883,270.034,204.481,306.346z"/>
		<path style="fill:#7F84DE;" d="M147.621,107.176c-12.834-19.515-2.516-46.557-2.516-46.557S168.813,91.921,147.621,107.176z"/>
		<path style="fill:#7F84DE;" d="M121.982,149.56c-37.126-0.007-28.613-48.24-28.613-48.24S123.322,126.676,121.982,149.56z"/>
		<path style="fill:#7F84DE;" d="M156.922,178.552c-25.938-11.919-11.646-54.052-11.646-54.052S161.817,157.695,156.922,178.552z"/>
		<path style="fill:#7F84DE;" d="M96.292,189.99c-27.785,7.97-45.009-32.551-45.009-32.551S86.099,171.344,96.292,189.99z"/>
		<path style="fill:#7F84DE;" d="M86.413,197.499c-41.77,29.075-59.025-24.897-59.025-24.897S61.687,184.619,86.413,197.499z"/>
		<path style="fill:#7F84DE;" d="M154.016,333.753c-11.537,48.861-70.466,21.504-70.466,21.504
			C99.38,348.138,128.459,332.403,154.016,333.753z"/>
		<path style="fill:#602F55;" d="M240.992,358.181c-0.801-0.737-80.338-74.409-95.91-131.398
			c-6.613-24.201-8.011-45.64-9.363-66.372c-1.85-28.368-3.447-52.867-18.179-76.668l0.85-0.525
			c14.863,24.012,16.469,48.627,18.327,77.129c1.349,20.683,2.743,42.069,9.33,66.173c15.497,56.712,94.823,130.191,95.623,130.926
			L240.992,358.181z"/>
		<path style="fill:#602F55;" d="M203.717,330.51c-21.982-32.654-46.637-41.924-63.448-43.95
			c-30.774-3.136-41.773-18.984-41.881-19.144l0.83-0.559c0.105,0.155,10.881,15.623,41.161,18.709
			c17.028,2.052,41.974,11.417,64.168,44.385L203.717,330.51z"/>
		<path style="fill:#602F55;" d="M158.185,257.422c-2.165-16.809,2.43-28.302,7.293-40.469c5.53-13.836,11.25-28.143,8.856-52.366
			l0.996-0.098c2.416,24.465-3.608,39.537-8.924,52.835c-4.814,12.044-9.361,23.419-7.229,39.971L158.185,257.422z"/>
		<path style="fill:#602F55;" d="M218.026,357.225c-0.228-0.341-23.102-34.116-55.378-38.908
			c-13.75-2.042-25.552,0.067-36.965,2.109c-15.203,2.719-29.563,5.284-44.511-3.998l0.527-0.85
			c14.622,9.08,28.147,6.664,43.808,3.863c11.493-2.055,23.377-4.179,37.287-2.113c32.72,4.856,55.834,38.997,56.063,39.342
			L218.026,357.225z"/>
		<path style="fill:#602F55;" d="M130.433,319.369c-9.668,0-17.944-8.325-27.429-17.865c-11.48-11.547-25.768-25.917-47.597-30.585
			l0.209-0.979c22.119,4.73,36.524,19.218,48.097,30.858c10.391,10.451,18.593,18.715,28.701,17.446l0.123,0.992
			C131.828,319.326,131.126,319.369,130.433,319.369z"/>
		<path style="fill:#602F55;" d="M194.566,332.667c-0.064-0.244-6.749-24.495-33.608-29.86l0.195-0.98
			c27.486,5.491,34.313,30.337,34.379,30.587L194.566,332.667z"/>
		<path style="fill:#602F55;" d="M107.152,354.409c-1.523,0-3.082-0.064-4.68-0.2l0.084-0.996
			c19.588,1.656,33.434-7.568,45.656-15.709c12.777-8.511,24.843-16.553,40.65-9.915l-0.387,0.922
			c-15.311-6.428-26.616,1.105-39.71,9.825C137.399,345.907,124.635,354.409,107.152,354.409z"/>
		<path style="fill:#602F55;" d="M144.785,225.672c-10.871-27.685-28.205-31.436-44.97-35.064
			c-11.504-2.489-22.37-4.841-29.989-14.992l0.8-0.6c7.395,9.852,18.084,12.165,29.401,14.614
			c16.229,3.512,34.622,7.492,45.689,35.676L144.785,225.672z"/>
		<path style="fill:#602F55;" d="M71.023,200.889c-8.504,0-17.621-3.007-26.078-12.41l0.744-0.668
			c17.854,19.853,38.883,10.352,50.18,5.246c3.998-1.807,6.637-3.004,8.111-2.567l-0.282,0.959c-1.118-0.327-4.035,0.992-7.417,2.52
			C90.066,196.777,80.965,200.889,71.023,200.889z"/>
		<path style="fill:#602F55;" d="M136.242,168.257c-0.809-9.352-7.265-13.551-14.739-18.412
			c-8.518-5.54-18.172-11.818-22.957-27.166l0.955-0.297c4.677,15.003,14.171,21.177,22.547,26.625
			c7.694,5.004,14.34,9.326,15.19,19.164L136.242,168.257z"/>
		<path style="fill:#602F55;" d="M133.646,134.901c-1.285-7.907,2.94-13.767,7.414-19.97c5.884-8.158,11.967-16.594,6.549-30.866
			l0.936-0.355c5.608,14.776-0.916,23.824-6.673,31.807c-4.35,6.03-8.458,11.726-7.239,19.225L133.646,134.901z"/>
		<path style="fill:#7F84DE;" d="M334.807,69.741c16.847-16.764,21.963-35.314,9.15-57.257
			C332.469,35.699,327.754,54.319,334.807,69.741z"/>
		<path style="fill:#7F84DE;" d="M351.571,67.62c0.441-18.916,19.777-32.18,19.777-32.18S372.72,67.22,351.571,67.62z"/>
		<path style="fill:#7F84DE;" d="M313.971,70.044c-29.754,4.395-28.648-35.267-28.648-35.267S312.331,51.546,313.971,70.044z"/>
		<path style="fill:#602F55;" d="M298.029,277.908c-0.194-0.861-19.247-86.625-3.353-131.798
			c6.749-19.18,15.698-34.112,24.352-48.553c11.833-19.743,22.053-36.795,23.203-59.417l0.998,0.051
			c-1.163,22.872-11.441,40.021-23.343,59.88c-8.63,14.398-17.553,29.286-24.267,48.371c-15.798,44.901,3.191,130.387,3.385,131.245
			L298.029,277.908z"/>
		<path style="fill:#602F55;" d="M327.522,83.359c-1.746-7.354-7.398-9.944-13.942-12.943c-7.497-3.437-15.995-7.332-21.663-19.095
			l0.9-0.434c5.513,11.438,13.836,15.253,21.18,18.619c6.782,3.108,12.639,5.793,14.498,13.622L327.522,83.359z"/>
		<path style="fill:#602F55;" d="M330.301,80.042l-0.902-0.43c2.805-5.896,8.338-7.859,14.196-9.938
			c7.655-2.716,15.571-5.524,18.526-17.481l0.971,0.24c-3.084,12.48-11.626,15.51-19.163,18.184
			C338.272,72.624,332.928,74.519,330.301,80.042z"/>
		<path style="fill:#602F55;" d="M170.532,206.439l-0.994-0.1c0.761-7.626-2.445-12.033-6.504-17.612
			c-5.794-7.964-13.005-17.876-13.957-41.899l1-0.039c0.939,23.72,8.051,33.495,13.766,41.351
			C168.026,193.89,171.331,198.433,170.532,206.439z"/>
		<path style="fill:#602F55;" d="M145.546,287.29c-7.447-3.584-11.229-10.553-15.608-18.622
			c-7.014-12.924-15.742-29.008-44.542-35.89l0.232-0.973c29.233,6.985,38.08,23.287,45.188,36.385
			c4.297,7.918,8.008,14.755,15.163,18.199L145.546,287.29z"/>
		<path style="fill:#602F55;" d="M209.526,326.078c-4.635-4.419-5.061-9.609-5.65-16.793c-0.893-10.876-2.114-25.771-19.035-48.545
			l0.803-0.596c17.091,23.003,18.327,38.063,19.229,49.059c0.571,6.964,0.983,11.995,5.343,16.15L209.526,326.078z"/>
		<path style="fill:#602F55;" d="M137.859,187.094c-3.603-9.334-7.861-11.277-11.979-13.156c-2.616-1.193-5.321-2.428-7.721-5.502
			l0.789-0.615c2.248,2.881,4.725,4.011,7.347,5.207c4.3,1.963,8.747,3.991,12.497,13.707L137.859,187.094z"/>
		<path style="fill:#602F55;" d="M122.581,179.467c-3.785,0-6.813-1.056-9.009-2.229c-4.116-2.199-6.217-5.2-6.304-5.326
			l0.822-0.568c0.081,0.116,8.254,11.588,23.567,5.151l0.387,0.922C128.507,178.905,125.343,179.467,122.581,179.467z"/>
		<path style="fill:#602F55;" d="M146.74,229.039l-0.725-0.688c0.104-0.11,10.398-11.188,9.282-28.369l0.998-0.064
			C157.441,217.549,146.848,228.926,146.74,229.039z"/>
		<path style="fill:#602F55;" d="M154.382,212.861c-10.496-10.746-8.553-25.892-8.531-26.044l0.99,0.137
			c-0.02,0.146-1.891,14.819,8.256,25.208L154.382,212.861z"/>
		<path style="fill:#602F55;" d="M167.619,273.02c-4.232-5.053-9.091-6.794-13.79-8.478c-4.431-1.589-9.014-3.231-12.951-7.619
			l0.744-0.668c3.77,4.2,8.032,5.727,12.545,7.346c4.824,1.728,9.813,3.517,14.218,8.776L167.619,273.02z"/>
		<path style="fill:#602F55;" d="M150.445,263.03c-3.662-19.517-19.852-32.344-20.015-32.471l0.615-0.789
			c0.166,0.13,16.651,13.191,20.382,33.076L150.445,263.03z"/>
		<path style="fill:#602F55;" d="M140.831,318.045c-9.809-5.052-16.462-16.153-16.528-16.265l0.861-0.51
			c0.064,0.109,6.576,10.967,16.124,15.886L140.831,318.045z"/>
		<path style="fill:#602F55;" d="M127.989,308.598c-9.187,0-13.534-8.832-13.58-8.927l0.901-0.433
			c0.045,0.092,4.56,9.243,14.079,8.288l0.102,0.994C128.978,308.574,128.476,308.598,127.989,308.598z"/>
		<path style="fill:#602F55;" d="M219.651,329.728c-0.018-0.105-0.105-0.384-0.237-0.817c-5.261-17.315-3.271-29.272-0.676-36.253
			l0.938,0.348c-2.542,6.837-4.485,18.565,0.695,35.614c0.221,0.727,0.274,0.903,0.277,1.043L219.651,329.728z"/>
		<path style="fill:#602F55;" d="M216.287,310.6c-9.11-8.914-6.082-22.918-6.05-23.059l0.976,0.22
			c-0.031,0.136-2.933,13.605,5.773,22.124L216.287,310.6z"/>
		<path style="fill:#602F55;" d="M110.133,169.791c0.662,1.473-0.022,3.215-1.529,3.893c-1.506,0.677-3.264,0.033-3.927-1.44
			c-0.662-1.473,0.022-3.215,1.529-3.893C107.712,167.673,109.47,168.318,110.133,169.791z"/>
		<path style="fill:#602F55;" d="M121.719,165.29c1.015,2.256-0.034,4.926-2.342,5.964c-2.308,1.038-5.001,0.05-6.016-2.206
			c-1.015-2.256,0.034-4.926,2.342-5.964C118.011,162.047,120.705,163.034,121.719,165.29z"/>
		<path style="fill:#602F55;" d="M135.186,152.137c-0.563-10.398,2.662-14.072,5.78-17.625c1.901-2.166,3.696-4.212,4.566-7.762
			l0.971,0.238c-0.928,3.787-2.889,6.021-4.786,8.184c-2.985,3.401-6.073,6.919-5.533,16.91L135.186,152.137z"/>
		<path style="fill:#602F55;" d="M137.52,140.872l-0.024-1c6.969-0.169,12.346-2.629,15.982-7.311
			c2.721-3.504,3.396-7.013,3.403-7.048l0.983,0.181C157.837,125.842,154.954,140.449,137.52,140.872z"/>
		<path style="fill:#602F55;" d="M154.381,124.934c0,1.615,1.338,2.924,2.99,2.924c1.652,0,2.991-1.308,2.992-2.923
			s-1.338-2.924-2.99-2.924C155.721,122.01,154.382,123.319,154.381,124.934z"/>
		<path style="fill:#602F55;" d="M141.968,125.578c-0.001,2.474,2.05,4.48,4.581,4.48c2.531,0.001,4.582-2.004,4.583-4.478
			c0.001-2.474-2.05-4.479-4.581-4.48C144.02,121.1,141.969,123.104,141.968,125.578z"/>
		<path style="fill:#602F55;" d="M150.607,182.348c1.014,2.256-0.034,4.926-2.342,5.964c-2.308,1.038-5.001,0.05-6.016-2.206
			c-1.015-2.256,0.034-4.926,2.342-5.964C146.899,179.104,149.592,180.092,150.607,182.348z"/>
		<path style="fill:#602F55;" d="M160.021,196.306c1.014,2.256-0.034,4.926-2.342,5.964c-2.308,1.038-5.001,0.05-6.016-2.206
			c-1.015-2.256,0.034-4.926,2.342-5.964C156.313,193.062,159.006,194.05,160.021,196.306z"/>
		<path style="fill:#602F55;" d="M107.768,209.264c1.015,2.256-0.034,4.926-2.342,5.964c-2.308,1.038-5.001,0.05-6.016-2.206
			c-1.015-2.256,0.034-4.926,2.342-5.964C104.06,206.021,106.753,207.008,107.768,209.264z"/>
		<path style="fill:#602F55;" d="M170.992,277.725l-0.725-0.689c0.104-0.11,10.398-11.186,9.282-28.369l0.998-0.064
			C181.693,266.236,171.1,277.612,170.992,277.725z"/>
		<path style="fill:#602F55;" d="M178.634,261.548c-10.496-10.746-8.553-25.892-8.531-26.044l0.99,0.137
			c-0.02,0.146-1.891,14.819,8.256,25.208L178.634,261.548z"/>
		<path style="fill:#602F55;" d="M174.859,231.035c1.015,2.256-0.034,4.926-2.342,5.964c-2.308,1.038-5.001,0.05-6.016-2.206
			c-1.015-2.256,0.034-4.926,2.342-5.964C171.151,227.791,173.844,228.779,174.859,231.035z"/>
		<path style="fill:#602F55;" d="M184.273,244.993c1.014,2.256-0.034,4.926-2.342,5.964c-2.308,1.038-5.001,0.05-6.016-2.206
			c-1.015-2.256,0.034-4.926,2.342-5.964C180.565,241.749,183.258,242.737,184.273,244.993z"/>
		<path style="fill:#602F55;" d="M191.024,200.745c0.677,1.504-0.023,3.285-1.561,3.977c-1.539,0.692-3.335,0.034-4.011-1.471
			c-0.677-1.504,0.023-3.285,1.561-3.977C188.552,198.582,190.348,199.24,191.024,200.745z"/>
		<path style="fill:#602F55;" d="M134.7,227.802c1.015,2.256-0.034,4.926-2.342,5.964c-2.308,1.038-5.001,0.05-6.016-2.206
			c-1.015-2.256,0.034-4.926,2.342-5.964C130.992,224.558,133.685,225.546,134.7,227.802z"/>
		<path style="fill:#602F55;" d="M50.349,283.474c0.767,1.704-0.026,3.722-1.769,4.506c-1.744,0.784-3.778,0.038-4.545-1.666
			c-0.766-1.704,0.026-3.722,1.769-4.506C47.548,281.024,49.583,281.77,50.349,283.474z"/>
		<path style="fill:#602F55;" d="M144.895,254.273c1.014,2.256-0.034,4.926-2.342,5.964c-2.308,1.038-5.001,0.05-6.016-2.206
			c-1.015-2.256,0.034-4.926,2.342-5.964C141.187,251.03,143.88,252.017,144.895,254.273z"/>
		<path style="fill:#602F55;" d="M116.469,295.76c1.015,2.256-0.034,4.926-2.342,5.964c-2.308,1.038-5.001,0.05-6.016-2.206
			c-1.014-2.256,0.034-4.926,2.342-5.964C112.761,292.516,115.455,293.504,116.469,295.76z"/>
		<path style="fill:#602F55;" d="M128.315,298.316c1.015,2.256-0.034,4.926-2.342,5.964s-5.001,0.05-6.016-2.206
			c-1.015-2.256,0.034-4.926,2.342-5.964C124.607,295.073,127.3,296.06,128.315,298.316z"/>
		<path style="fill:#602F55;" d="M214.903,285.773c1.015,2.256-0.034,4.926-2.342,5.964c-2.308,1.038-5.001,0.05-6.016-2.206
			c-1.014-2.256,0.034-4.926,2.342-5.964C211.195,282.529,213.889,283.517,214.903,285.773z"/>
		<path style="fill:#602F55;" d="M221.921,293.031c0.758,1.686-0.025,3.681-1.75,4.456c-1.724,0.776-3.737,0.038-4.495-1.648
			c-0.758-1.686,0.025-3.681,1.75-4.456C219.151,290.608,221.163,291.346,221.921,293.031z"/>
		<g>
			<path style="fill:#7F84DE;" d="M190.16,72.463c-2.158-16.658-13.798-32.583-30.606-43.854
				C158.762,47.368,170.203,68.558,190.16,72.463z"/>
			<g>
				<path style="fill:#7F84DE;" d="M206.216,107.394c-9.346-13.889-18.142-19.466-38.392-22.205
					C175.426,102.228,186.375,112.576,206.216,107.394z"/>
				<path style="fill:#7F84DE;" d="M232.648,192.935c13.878-10.026,19.365-19.036,21.79-39.21
					C237.347,162.204,227.075,173.615,232.648,192.935z"/>
				<path style="fill:#7F84DE;" d="M237.386,202.021c20.058-2.577,31.33-8.645,47.035-27.525
					C262.28,173.8,244.792,179.699,237.386,202.021z"/>
				<path style="fill:#7F84DE;" d="M195.743,72.789c6.855-13.746,10.29-31.79-7.771-48.595
					C188.918,37.782,182.939,59.91,195.743,72.789z"/>
				<path style="fill:#7F84DE;" d="M240.339,120.51c-14.881-18.002-7.567-46.007-7.567-46.007S259.745,103.039,240.339,120.51z"/>
				<path style="fill:#7F84DE;" d="M245.455,121.973c11.289-28.479,47.661-38.885,47.661-38.885S277.312,131.997,245.455,121.973z"
					/>
				<path style="fill:#602F55;" d="M251.439,281.414c-35.241-34.561-34.242-58.013-32.053-109.399
					c0.119-2.793,0.242-5.67,0.362-8.64c0.07-1.709,0.139-3.447,0.206-5.217c3.205-55.222-43.663-101.849-44.137-102.313
					l0.699-0.715c0.478,0.468,47.667,47.415,44.437,103.075c-0.066,1.761-0.135,3.501-0.205,5.21
					c-0.121,2.97-0.244,5.848-0.363,8.642c-2.241,52.615-3.169,74.393,31.754,108.641L251.439,281.414z"/>
				<path style="fill:#602F55;" d="M220.949,158.252l-0.988-0.148c1.178-7.824,5.377-13.521,9.823-19.551
					c6.477-8.785,13.174-17.869,10.062-34.33l0.982-0.186c3.193,16.889-3.636,26.151-10.239,35.108
					C226.219,145.073,222.091,150.673,220.949,158.252z"/>
				<path style="fill:#602F55;" d="M213.346,115.412c-4.917-8.36-10.804-9.96-17.619-11.813
					c-6.931-1.884-14.787-4.019-23.114-13.819l0.762-0.648c8.127,9.565,15.824,11.657,22.614,13.503
					c6.734,1.83,13.096,3.559,18.219,12.27L213.346,115.412z"/>
				<path style="fill:#602F55;" d="M198.303,84.629c-3.767-5.214-3.326-12.401-2.861-20.011c0.539-8.798,1.148-18.77-4.347-28.115
					l0.861-0.508c5.65,9.608,5.031,19.743,4.483,28.685c-0.474,7.748-0.883,14.439,2.674,19.363L198.303,84.629z"/>
				<path style="fill:#602F55;" d="M232.267,244.89c-0.052-0.134-5.233-13.593-3.589-33.083
					c1.402-16.616,7.199-32.606,17.231-47.525l0.83,0.559c-9.937,14.775-15.678,30.606-17.066,47.051
					c-1.623,19.243,3.473,32.502,3.525,32.634L232.267,244.89z"/>
				<path style="fill:#602F55;" d="M229.575,213.186l-0.992-0.125c1.194-9.472,9.858-13.143,19.029-17.032
					c7.098-3.009,14.438-6.12,18.742-12.128l0.813,0.582c-4.469,6.236-11.939,9.404-19.164,12.467
					C239.104,200.723,230.697,204.286,229.575,213.186z"/>
				<path style="fill:#602F55;" d="M237.415,128.837l-0.873-0.488c2.767-4.941,9.027-7.821,16.276-11.156
					c9.791-4.505,20.888-9.611,28.079-21.358l0.854,0.521c-7.351,12.007-19.086,17.406-28.515,21.745
					C246.145,121.362,240.023,124.179,237.415,128.837z"/>
				<path style="fill:#602F55;" d="M220.651,223.803l-0.994-0.111c0.049-0.439,1.285-10.863,8.51-18.559l0.728,0.684
					C221.905,213.264,220.663,223.698,220.651,223.803z"/>
				<path style="fill:#602F55;" d="M219.702,165.094c-6.615-24.251-30.661-38.388-30.903-38.528l0.5-0.865
					c0.246,0.142,24.646,14.487,31.368,39.13L219.702,165.094z"/>
				<path style="fill:#602F55;" d="M204.968,139.731c-1.656-20.969-20.538-27.792-20.729-27.858l0.33-0.943
					c0.196,0.068,19.688,7.111,21.395,28.724L204.968,139.731z"/>
				<path style="fill:#602F55;" d="M209.482,152.042c-9.447,0-15.766-7.817-15.838-7.909l0.783-0.621
					c0.081,0.101,8.141,10.058,19.485,6.92l0.266,0.965C212.543,151.846,210.973,152.042,209.482,152.042z"/>
				<path style="fill:#602F55;" d="M219.979,181.776l-0.986-0.166c0.027-0.165,2.963-16.621,20.166-26.737l0.508,0.861
					C222.86,165.617,220.005,181.615,219.979,181.776z"/>
				<path style="fill:#602F55;" d="M228.41,164.082c-4.109-9.642,5.184-17.226,5.277-17.302l0.625,0.781
					c-0.088,0.07-8.791,7.191-4.982,16.128L228.41,164.082z"/>
				<path style="fill:#602F55;" d="M213.17,113.193l-0.818-0.574c8.74-12.441,10.08-24.134,9.665-31.751
					c-0.45-8.265-3.004-13.657-3.029-13.711l0.9-0.434C219.993,66.942,230.246,88.886,213.17,113.193z"/>
				<path style="fill:#602F55;" d="M222.211,88.668c-5.134-1.349-8.778-6.3-10.539-14.32c-1.312-5.973-1.13-11.632-1.128-11.689
					l1,0.035c-0.008,0.22-0.635,21.971,10.921,25.007L222.211,88.668z"/>
				<path style="fill:#602F55;" d="M222.826,80.761l-0.676-0.738c11.806-10.808,7.759-23.763,7.717-23.892l0.951-0.311
					c0.045,0.14,1.108,3.47,0.662,8.229C231.07,68.434,229.235,74.893,222.826,80.761z"/>
				<path style="fill:#602F55;" d="M231.537,203.097c1.254,2.132,0.502,4.901-1.679,6.184c-2.181,1.283-4.966,0.594-6.22-1.538
					c-1.254-2.132-0.502-4.901,1.679-6.184C227.498,200.276,230.283,200.964,231.537,203.097z"/>
				<path style="fill:#602F55;" d="M241.967,154.054c1.254,2.132,0.502,4.901-1.679,6.184c-2.181,1.283-4.966,0.594-6.22-1.538
					c-1.254-2.132-0.502-4.901,1.679-6.184C237.928,151.233,240.713,151.922,241.967,154.054z"/>
				<path style="fill:#602F55;" d="M239.185,144.122c1.254,2.132,0.502,4.901-1.679,6.184c-2.181,1.283-4.966,0.594-6.22-1.538
					c-1.254-2.132-0.502-4.901,1.679-6.184C235.146,141.301,237.931,141.99,239.185,144.122z"/>
				<path style="fill:#602F55;" d="M198.772,141.723c1.254,2.132,0.502,4.901-1.679,6.184c-2.181,1.283-4.966,0.594-6.22-1.538
					c-1.254-2.132-0.502-4.901,1.679-6.184C194.733,138.902,197.518,139.591,198.772,141.723z"/>
				<path style="fill:#602F55;" d="M193.552,125.532c0.895,1.521,0.358,3.496-1.198,4.411c-1.556,0.915-3.542,0.424-4.437-1.097
					c-0.895-1.521-0.358-3.496,1.198-4.411C190.671,123.52,192.658,124.011,193.552,125.532z"/>
				<path style="fill:#602F55;" d="M188.958,110.106c1.254,2.132,0.502,4.901-1.679,6.184c-2.181,1.283-4.966,0.594-6.22-1.538
					c-1.254-2.132-0.502-4.901,1.679-6.184C184.919,107.285,187.704,107.974,188.958,110.106z"/>
				<path style="fill:#602F55;" d="M224.398,66.523c0.664,2.383-0.773,4.865-3.211,5.545c-2.438,0.679-4.952-0.701-5.616-3.084
					c-0.664-2.383,0.773-4.865,3.211-5.545C221.219,62.759,223.734,64.14,224.398,66.523z"/>
				<path style="fill:#602F55;" d="M214.585,60.369c0.664,2.383-0.773,4.865-3.211,5.545c-2.438,0.68-4.952-0.701-5.616-3.084
					c-0.664-2.383,0.773-4.865,3.211-5.545C211.406,56.605,213.921,57.986,214.585,60.369z"/>
				<path style="fill:#602F55;" d="M234.613,54.218c0.664,2.383-0.773,4.866-3.211,5.545c-2.438,0.68-4.952-0.701-5.616-3.084
					s0.774-4.866,3.211-5.545C231.434,50.455,233.949,51.836,234.613,54.218z"/>
			</g>
		</g>
		<path style="fill:#602F55;" d="M87.537,249.464c-13.275,0-30.872-3.199-50.414-15.098l0.52-0.854
			c21.737,13.234,40.832,15.439,53.037,14.962c13.218-0.52,21.403-4.217,21.484-4.254l0.418,0.908
			C112.406,245.21,102.844,249.464,87.537,249.464z"/>
		<path style="fill:#602F55;" d="M117.348,259.645c-4.097,0-9.347-0.603-14.281-2.951l0.43-0.902
			c9.787,4.653,20.9,2.227,21.011,2.201l0.221,0.975C124.669,258.981,121.643,259.645,117.348,259.645z"/>
		<path style="fill:#602F55;" d="M106.991,253.32c1.015,2.256-0.034,4.926-2.342,5.964c-2.308,1.038-5.001,0.05-6.016-2.206
			c-1.015-2.256,0.034-4.926,2.342-5.964C103.283,250.077,105.976,251.064,106.991,253.32z"/>
		<path style="fill:#602F55;" d="M57.471,295.07c1.015,2.256-0.034,4.926-2.342,5.964c-2.308,1.038-5.001,0.05-6.016-2.206
			c-1.015-2.256,0.034-4.926,2.342-5.964C53.763,291.826,56.457,292.814,57.471,295.07z"/>
		<path style="fill:#602F55;" d="M110.831,243.204l-0.979-0.207c0.015-0.071,1.353-7.312-8.879-19.471l0.766-0.645
			C112.331,235.471,110.897,242.894,110.831,243.204z"/>
		<path style="fill:#602F55;" d="M101.028,226.191c1.579,0.375,3.189-0.588,3.596-2.149c0.407-1.562-0.543-3.131-2.121-3.506
			c-1.579-0.374-3.188,0.588-3.596,2.15C98.499,224.247,99.449,225.816,101.028,226.191z"/>
		<path style="fill:#602F55;" d="M102.852,203.921c1.579,0.375,3.189-0.588,3.596-2.149c0.407-1.562-0.543-3.131-2.121-3.506
			c-1.579-0.375-3.188,0.588-3.596,2.149C100.323,201.977,101.273,203.547,102.852,203.921z"/>
		<path style="fill:#602F55;" d="M110.301,240.53l-0.516-0.857c6.575-3.949,3.501-10.066,3.367-10.323l0.887-0.463
			C114.076,228.958,117.693,236.09,110.301,240.53z"/>
		<path style="fill:#602F55;" d="M117.043,226.726c0.912,2.029-0.03,4.431-2.106,5.364c-2.076,0.933-4.498,0.045-5.41-1.984
			c-0.912-2.029,0.031-4.431,2.106-5.364S116.131,224.697,117.043,226.726z"/>
		<path style="fill:#602F55;" d="M121.69,197.477c-0.118-0.166-12.04-16.783-35.926-27.152l0.398-0.918
			c24.156,10.487,36.225,27.325,36.344,27.494L121.69,197.477z"/>
		<path style="fill:#602F55;" d="M101.02,178.407c-1.393-13.018-14.024-19.632-14.151-19.697l0.455-0.891
			c0.132,0.067,13.24,6.917,14.69,20.482L101.02,178.407z"/>
		<path style="fill:#602F55;" d="M90.747,155.316c1.015,2.256-0.034,4.926-2.342,5.964c-2.308,1.038-5.001,0.05-6.016-2.206
			c-1.014-2.256,0.034-4.926,2.342-5.964C87.039,152.072,89.732,153.06,90.747,155.316z"/>
		<path style="fill:#602F55;" d="M88.692,168.64c0.662,1.473-0.022,3.215-1.529,3.893c-1.506,0.677-3.264,0.033-3.927-1.44
			c-0.662-1.473,0.022-3.215,1.528-3.893C86.272,166.523,88.03,167.167,88.692,168.64z"/>
		<path style="fill:#602F55;" d="M134.042,207.274c-0.142-0.109-14.251-10.895-28.677-5.685l-0.34-0.941
			c14.952-5.396,29.485,5.724,29.631,5.837L134.042,207.274z"/>
		<path style="fill:#602F55;" d="M105.327,211.594l-0.354-0.936c0.084-0.032,8.476-3.287,11.455-10.99l0.934,0.361
			C114.218,208.156,105.688,211.457,105.327,211.594z"/>
		<path style="fill:#602F55;" d="M78.38,302.485c-7.09,0-15.38-1.14-24.113-4.648l0.373-0.928c24.392,9.8,45.272,0.834,45.481,0.743
			l0.404,0.914C100.388,298.627,91.42,302.485,78.38,302.485z"/>
		<path style="fill:#602F55;" d="M69.478,301.534c-3.172-8.689-10.419-14.011-21.539-15.818l0.16-0.986
			c11.504,1.869,19.014,7.407,22.318,16.461L69.478,301.534z"/>
		<path style="fill:#7F84DE;" d="M473.193,73.854c28.445-6.267,46.109-22.303,47.736-53.971
			C493.631,36.532,476.33,52.911,473.193,73.854z"/>
		<path style="fill:#7F84DE;" d="M440.101,93.642c17.731-18.271,23.987-33.207,24.333-64.552
			C442.022,45.679,429.494,65.299,440.101,93.642z"/>
		<path style="fill:#602F55;" d="M384.902,181.896l-0.371-0.93c0.381-0.151,38.16-15.537,49.53-46.121
			c4.844-13.028,5.224-25.012,5.591-36.601c0.489-15.437,0.952-30.018,13.128-42.719l0.723,0.691
			c-11.911,12.425-12.347,26.158-12.851,42.059c-0.37,11.67-0.753,23.735-5.653,36.917
			C423.472,166.198,385.286,181.742,384.902,181.896z"/>
		<path style="fill:#602F55;" d="M440.393,105.281l-0.996-0.084c0.9-10.634,11.356-17.395,23.464-25.223
			c13.675-8.841,30.692-19.843,39.778-40.232l0.914,0.406c-9.208,20.662-26.364,31.754-40.15,40.666
			C451.027,88.816,441.252,95.136,440.393,105.281z"/>
		<path style="fill:#602F55;" d="M491.402,32.194c-1.826,0.397-3.636-0.796-4.042-2.664c-0.406-1.868,0.745-3.705,2.571-4.102
			c1.826-0.397,3.636,0.796,4.042,2.664S493.228,31.797,491.402,32.194z"/>
		<path style="fill:#602F55;" d="M478.583,36.761c-2.417,0.525-4.813-1.053-5.35-3.526c-0.538-2.473,0.986-4.903,3.404-5.429
			s4.813,1.053,5.35,3.526C482.524,33.805,481,36.236,478.583,36.761z"/>
		<path style="fill:#602F55;" d="M466.247,78.157c-0.048-0.227-4.59-22.906,10.293-45.104l0.83,0.557
			c-14.65,21.853-10.191,44.12-10.145,44.343L466.247,78.157z"/>
		<path style="fill:#602F55;" d="M469.915,48.159l-0.141-0.99c9.156-1.304,15.863-7.291,19.935-17.797l0.932,0.361
			C486.43,40.601,479.456,46.801,469.915,48.159z"/>
		<path style="fill:#602F55;" d="M165.608,219.285l-0.816-0.578c8.27-11.677,22.693-16.612,22.838-16.66l0.318,0.947
			C187.807,203.042,173.686,207.881,165.608,219.285z"/>
	</g>
	<g>
		<path style="fill:#FFFFFF;" d="M203.175,178.084c1.3-7.67,3.374-21.335,3.259-44.184c0,0,6.054-7.077,4.86-13.941
			c-0.47-3.207-2.099-6.146-4.762-7.768c-1.018-2.107-3.475-6.941-4.575-6.941c-1.148,0-1.473,4.16-1.554,5.692
			c-1.455,0.156-3.042,0.585-4.756,1.342c-1.117,0.519-2.095,1.119-2.957,1.775c-2.42-1.111-7.482-3.263-8.512-2.33
			c-1.09,0.988,1.764,8.393,2.957,11.333c-0.953,4.301-0.228,8.023-0.228,8.023c-26.278,10.218-25.848,25.875-23.697,46.975
			L203.175,178.084z"/>
		<g>
			<path style="fill:#FF5C7B;" d="M186.723,130.575c0.42,1.938,11.867,8.574,20.024,2.946v3.193
				c-3.28,3.041-15.448,3.486-21.502-5.074L186.723,130.575z"/>
			<g>
				<path style="fill:#602F55;" d="M204.049,139.919c-0.232,0-0.44-0.163-0.489-0.399l-0.432-2.106
					c-0.055-0.271,0.119-0.535,0.39-0.591c0.267-0.055,0.535,0.118,0.591,0.39l0.432,2.107c0.055,0.27-0.119,0.535-0.39,0.591
					C204.116,139.916,204.083,139.919,204.049,139.919z"/>
				<circle style="fill:#FFC549;" cx="204.545" cy="141.618" r="2.771"/>
				<path style="fill:#602F55;" d="M201.678,142.83c-0.076,0-0.152-0.018-0.225-0.054c-0.247-0.124-0.346-0.425-0.222-0.671
					c0.464-0.923,2.101-1.387,2.782-1.544c1.292-0.296,2.976-0.382,3.828,0.268c0.219,0.167,0.262,0.481,0.094,0.701
					c-0.168,0.221-0.482,0.261-0.701,0.094c-0.454-0.346-1.713-0.385-2.996-0.088c-1.188,0.273-1.963,0.72-2.114,1.019
					C202.036,142.729,201.86,142.83,201.678,142.83z"/>
			</g>
		</g>
		<g>
			<path style="fill:#602F55;" d="M197.515,119.871c0.228,0.568-0.048,1.214-0.616,1.442c-0.568,0.228-1.214-0.048-1.442-0.616
				s0.048-1.214,0.616-1.442C196.642,119.027,197.287,119.303,197.515,119.871z"/>
			<path style="fill:#602F55;" d="M204.957,116.885c0.228,0.568-0.048,1.214-0.616,1.442c-0.568,0.228-1.214-0.048-1.442-0.616
				c-0.228-0.568,0.048-1.214,0.616-1.442C204.083,116.041,204.729,116.317,204.957,116.885z"/>
			<g>
				<path style="fill:#602F55;" d="M201.267,117.94c-0.723,0.124-1.414,0.401-2.022,0.811c-0.35,0.236-0.65,0.496-0.596,0.665
					c0.122,0.38,0.786-0.021,1.105-0.026c0.319-0.006,0.491,0.282,0.686,0.36s0.38,0.004,0.38,0.004s0.185-0.074,0.272-0.266
					c0.088-0.192,0.012-0.518,0.247-0.735c0.234-0.217,0.991-0.386,0.817-0.745C202.08,117.849,201.684,117.868,201.267,117.94z"/>
				<path style="fill:#602F55;" d="M200.634,120.026c-0.084,0-0.182-0.014-0.282-0.054c-0.104-0.041-0.189-0.111-0.271-0.178
					c-0.125-0.101-0.209-0.164-0.316-0.164c-0.002,0-0.004,0-0.005,0c-0.068,0.001-0.201,0.041-0.317,0.078
					c-0.326,0.098-0.866,0.265-1.022-0.219c-0.087-0.271,0.119-0.552,0.691-0.938c0.632-0.426,1.364-0.72,2.116-0.849l0,0
					c0.675-0.116,1.022-0.057,1.147,0.2c0.223,0.457-0.284,0.712-0.587,0.864c-0.11,0.054-0.234,0.117-0.283,0.163
					c-0.081,0.074-0.099,0.178-0.119,0.342c-0.012,0.105-0.026,0.214-0.072,0.315c-0.124,0.272-0.374,0.379-0.402,0.391
					C200.893,119.984,200.783,120.026,200.634,120.026z M199.764,119.15c0.285,0,0.479,0.158,0.62,0.273
					c0.054,0.044,0.11,0.089,0.145,0.103c0.1,0.041,0.2,0.006,0.206,0.004l0,0c-0.001,0,0.096-0.045,0.14-0.142
					c0.016-0.035,0.024-0.106,0.033-0.175c0.023-0.185,0.053-0.438,0.27-0.636c0.099-0.093,0.242-0.164,0.393-0.24
					c0.109-0.054,0.304-0.152,0.361-0.219c-0.048,0.008-0.216-0.011-0.625,0.058l0,0c-0.685,0.117-1.352,0.385-1.928,0.773
					c-0.452,0.306-0.496,0.435-0.498,0.44c0.051-0.028,0.291-0.102,0.421-0.142c0.161-0.05,0.314-0.096,0.449-0.099
					C199.755,119.15,199.76,119.15,199.764,119.15z"/>
			</g>
			
				<rect x="200.639" y="119.48" transform="matrix(0.9281 -0.3724 0.3724 0.9281 -30.4254 83.5852)" style="fill:#602F55;" width="1" height="2.132"/>
		</g>
		<path style="fill:#602F55;" d="M178.405,173.434l-0.447-0.895c0.382-0.191,9.315-4.788,6.091-13.48
			c-3.114-7.289-11.531-5.655-11.889-5.581l-0.202-0.979c0.096-0.021,9.572-1.883,13.02,6.189
			C188.524,168.251,178.507,173.384,178.405,173.434z"/>
		<path style="fill:#A56B94;" d="M191.842,115.148c-0.704,2.781-2.021,4.568-3.461,5.744c0,0-2.461-5.938-1.508-6.892
			C187.826,113.047,191.842,115.148,191.842,115.148z"/>
		<path style="fill:#A56B94;" d="M201.749,110.957c0,0,0.159-2.884,0.855-2.884s2.004,3.409,2.004,3.409
			C203.635,111.172,202.684,111.013,201.749,110.957z"/>
		<path style="fill:#E2C9DC;" d="M195.704,122.284c0.14,0.364-0.286,0.867-0.952,1.124c-0.666,0.257-1.32,0.169-1.46-0.195
			c-0.14-0.364,0.286-0.867,0.952-1.124C194.91,121.833,195.564,121.92,195.704,122.284z"/>
		<path style="fill:#E2C9DC;" d="M208.506,117.355c0.14,0.364-0.286,0.867-0.952,1.124c-0.666,0.257-1.32,0.169-1.46-0.195
			c-0.14-0.364,0.286-0.867,0.952-1.124S208.366,116.991,208.506,117.355z"/>
		<path style="fill:#FFFFFF;" d="M162.557,170.754c0,0-3.807,0.911-3.99,3.522c-0.007,3.809,3.068,3.809,3.068,3.809
			s37.689,0,41.215,0c3.526,0,5.266-5.686,2.61-7.884c-3.11-2.93-35.762,1.039-42.818,1.699L162.557,170.754z"/>
		<path style="fill:#602F55;" d="M162.713,172.394l-0.143-0.99c14.552-2.09,28.646-2.833,41.898-2.204l-0.047,0.998
			C191.232,169.572,177.202,170.311,162.713,172.394z"/>
		
			<rect x="192.937" y="161.112" transform="matrix(0.0547 -0.9985 0.9985 0.0547 28.5257 353.356)" style="fill:#602F55;" width="15.903" height="1"/>
	</g>
	<g>
		<g>
			<path style="fill:#7F84DE;" d="M590.168,92.778c-17.603-25.435-23.674-39.109-2.092-64.169
				C597.297,61.036,602.838,74.705,590.168,92.778z"/>
			<path style="fill:#7F84DE;" d="M664.073,189.514c6.059-23.657,20.005-38.134,46.604-38.939
				C695.945,173.092,681.722,187.26,664.073,189.514z"/>
			<path style="fill:#7F84DE;" d="M699.3,181.542c3.186-21.082,32.511-35.545,32.511-35.545S728.472,185.421,699.3,181.542z"/>
			<path style="fill:#7F84DE;" d="M690.109,235.893c0.078-27.931,11.507-47.749,40.85-55.725
				C720.92,209.14,709.095,228.688,690.109,235.893z"/>
			<path style="fill:#7F84DE;" d="M619.282,291.662c3.044-19.677,13.223-32.494,34.766-35.165
				C643.869,275.905,633.44,288.493,619.282,291.662z"/>
			<path style="fill:#7F84DE;" d="M662.409,240.141c2.145-17.525,7.746-26.984,25.47-39.284
				C688.879,220.499,683.534,235.47,662.409,240.141z"/>
			<path style="fill:#7F84DE;" d="M530.028,196.317c1.07-17.619,6.084-27.388,23.024-40.701
				C555.25,175.165,550.829,190.422,530.028,196.317z"/>
			<path style="fill:#7F84DE;" d="M551.726,288.188c-17.972-1.694-27.774-6.951-40.761-23.989
				C531.03,262.771,546.464,267.65,551.726,288.188z"/>
			<path style="fill:#7F84DE;" d="M552.277,298.978c-19.607,8.379-33.095,8.889-57.459,0.124
				C514.567,286.636,533.614,282.65,552.277,298.978z"/>
			<path style="fill:#7F84DE;" d="M678.308,270.933c13.509-20.336,26.231-29.241,55.533-35.95
				C722.86,259.364,707.027,275.099,678.308,270.933z"/>
			<path style="fill:#7F84DE;" d="M525.95,155.989c-6.942-16.293-4.875-36.988,4.376-56.215
				C541.072,116.399,542,141.773,525.95,155.989z"/>
			<path style="fill:#7F84DE;" d="M521.05,159.269c-13.578-8.829-26.344-23.392-18.911-48.318
				C508.542,123.805,525.803,140.72,521.05,159.269z"/>
			<path style="fill:#7F84DE;" d="M579.838,173.218c-26.77-16.071-39.274-37.924-30.191-69.455
				C571.732,129.582,583.752,151.645,579.838,173.218z"/>
			<path style="fill:#7F84DE;" d="M569.416,269.504c19.883-23.776,24.35-48.432,5.174-75.296
				C562.407,225.688,558.469,250.385,569.416,269.504z"/>
			<path style="fill:#7F84DE;" d="M601.396,294.004c19.883-23.776,0-71.09,0-71.09S573.768,264.45,601.396,294.004z"/>
			<path style="fill:#7F84DE;" d="M570,86.221c3.94-24.45-17.887-46.112-17.887-46.112S542.76,80.685,570,86.221z"/>
			<path style="fill:#7F84DE;" d="M506.025,226.476c3.902-24.315-17.713-45.857-17.713-45.857S479.05,220.97,506.025,226.476z"/>
			<path style="fill:#7F84DE;" d="M502.158,230.54c-25.482-19.849-64.1-9.866-64.1-9.866S478.562,256.678,502.158,230.54z"/>
			<path style="fill:#7F84DE;" d="M610.401,107.563c35.698-16.062,6.654-58.76,6.654-58.76S599.217,86.137,610.401,107.563z"/>
			<path style="fill:#7F84DE;" d="M589.34,150.551c19.787-22.678-12.175-57.013-12.175-57.013S575.614,132.612,589.34,150.551z"/>
			<path style="fill:#7F84DE;" d="M652.588,135.332c30.165-4.351,29.205-50.765,29.205-50.765S654.327,112.994,652.588,135.332z"/>
			<path style="fill:#7F84DE;" d="M665.335,138.281c52.739,9.896,45.993-49.465,45.993-49.465S683.542,115.203,665.335,138.281z"/>
			<path style="fill:#7F84DE;" d="M654.548,295.088c29.306,38.195,70.085-8.907,70.085-8.907
				C707.989,286.181,676.369,283.857,654.548,295.088z"/>
			<path style="fill:#602F55;" d="M586.149,359.628l-0.92-0.392c0.451-1.054,44.96-106.022,35.337-167.267
				c-4.09-26.027-11.997-47.198-19.645-67.671c-10.536-28.208-19.636-52.569-15.728-82.08l0.992,0.131
				c-3.875,29.264,5.184,53.517,15.674,81.6c7.664,20.52,15.59,41.737,19.695,67.866
				C631.222,253.342,586.601,358.572,586.149,359.628z"/>
			<path style="fill:#602F55;" d="M581.912,378.638l-0.965-0.26c13.438-49.805,0.951-69.105-29.214-115.733
				c-1.602-2.475-3.251-5.024-4.947-7.658c-0.978-1.517-1.97-3.059-2.978-4.634c-32.674-48.841-14.881-116.72-14.697-117.399
				l0.965,0.26c-0.182,0.676-17.854,68.125,14.569,116.592c1.013,1.581,2.005,3.124,2.98,4.641c1.697,2.633,3.346,5.183,4.946,7.656
				C582.024,307.626,595.466,328.403,581.912,378.638z"/>
			<path style="fill:#602F55;" d="M608.563,316.906l-0.986-0.17c2.527-14.725,11.868-51.062,43.953-70.405
				c27.805-16.073,31.479-35.619,31.512-35.814l0.986,0.17c-0.034,0.199-3.755,20.184-31.99,36.505
				C620.315,266.317,611.065,302.316,608.563,316.906z"/>
			<path style="fill:#602F55;" d="M621.248,227.237c-5.109-16.845-14.403-25.819-24.243-35.321
				c-10.859-10.486-23.168-22.372-31.421-46.938l0.947-0.318c8.176,24.334,19.864,35.621,31.169,46.537
				c9.936,9.594,19.32,18.656,24.505,35.749L621.248,227.237z"/>
			<path style="fill:#602F55;" d="M570.982,293.514c-4.417-17.682-1.23-30.209,3.179-47.548c4.425-17.396,0.077-26.843,0.033-26.936
				l0.902-0.43c0.189,0.395,4.547,9.869,0.033,27.612c-4.373,17.197-7.533,29.623-3.177,47.06L570.982,293.514z"/>
			<path style="fill:#602F55;" d="M543.841,250.397c-5.092-6.283-11.84-9.168-18.982-12.221
				c-10.784-4.609-21.935-9.375-28.057-26.42l0.941-0.338c5.974,16.635,16.921,21.313,27.508,25.838
				c7.261,3.104,14.118,6.035,19.367,12.512L543.841,250.397z"/>
			<path style="fill:#602F55;" d="M527.806,207.415h-1c0-10.645,4.853-15.612,9.992-20.871c5.188-5.309,11.068-11.328,13.343-24.373
				l0.984,0.172c-2.327,13.351-8.322,19.486-13.612,24.9C532.304,192.573,527.806,197.178,527.806,207.415z"/>
			<path style="fill:#602F55;" d="M525.023,171.394l-0.996-0.094c0.602-6.386-3.349-12.252-7.923-19.045
				c-5.274-7.83-11.252-16.706-11.252-28.45h1c0,11.439,5.887,20.18,11.081,27.892C521.615,158.649,525.659,164.653,525.023,171.394
				z"/>
			<path style="fill:#602F55;" d="M607.818,340.795l-0.986-0.164c0.065-0.392,6.854-39.35,33.567-56.471
				c11.357-7.278,22.587-10.095,33.447-12.818c14.794-3.711,27.57-6.915,36.782-20.601l0.83,0.559
				c-9.427,14.004-22.999,17.408-37.369,21.012c-10.782,2.704-21.933,5.5-33.151,12.69
				C614.604,301.881,607.883,340.408,607.818,340.795z"/>
			<path style="fill:#602F55;" d="M667.63,273.966l-0.295-0.955c9.322-2.868,13.252-13.313,18.227-26.534
				c5.545-14.735,12.445-33.073,29.935-45.913l0.592,0.807c-17.25,12.663-24.093,30.848-29.591,45.459
				C681.627,259.774,677.42,270.954,667.63,273.966z"/>
			<path style="fill:#602F55;" d="M617.691,310.248c-0.041-0.244-3.843-24.672,18.047-40.292l0.58,0.814
				c-21.368,15.248-17.681,39.074-17.641,39.314L617.691,310.248z"/>
			<path style="fill:#602F55;" d="M622.362,304.07l-0.73-0.682c11.22-12.027,24.943-9.74,39.471-7.322
				c13.888,2.311,29.628,4.933,46.093-4.216l0.486,0.875c-16.77,9.317-32.692,6.667-46.743,4.327
				C646.06,294.574,633.217,292.437,622.362,304.07z"/>
			<path style="fill:#602F55;" d="M578.827,335.365c-0.023-0.147-2.479-14.926-14.244-31.554
				c-10.056-14.21-23.738-25.53-40.668-33.648l0.432-0.902c17.086,8.193,30.898,19.623,41.053,33.973
				c11.908,16.83,14.392,31.826,14.416,31.976L578.827,335.365z"/>
			<path style="fill:#602F55;" d="M565.365,304.935c-5.788-7.501-15.339-6.246-25.451-4.918c-8.201,1.079-16.678,2.192-24.067-1.085
				l0.406-0.914c7.13,3.161,15.467,2.067,23.53,1.008c10.407-1.367,20.235-2.659,26.373,5.298L565.365,304.935z"/>
			<path style="fill:#602F55;" d="M513.148,232.458c-4.866-2.842-11.942-2.13-20.135-1.305c-10.885,1.097-24.431,2.461-37.522-4.519
				l0.471-0.883c12.821,6.837,25.642,5.543,36.951,4.406c8.364-0.843,15.591-1.57,20.739,1.436L513.148,232.458z"/>
			<path style="fill:#602F55;" d="M620.36,190.663c-1.545-31.872,14.415-43.649,28.496-54.039
				c9.828-7.252,19.111-14.102,21.963-26.783l0.977,0.219c-2.935,13.046-12.363,20.003-22.346,27.369
				c-14.557,10.741-29.609,21.849-28.092,53.186L620.36,190.663z"/>
			<path style="fill:#602F55;" d="M646.08,139.917l-0.65-0.76c1.22-1.045,4.279-1.04,8.891-1.031
				c13.072,0.027,37.42,0.069,46.012-26.764l0.953,0.305c-8.816,27.528-33.648,27.48-46.967,27.459
				C650.25,139.117,647.018,139.113,646.08,139.917z"/>
			<path style="fill:#602F55;" d="M603.805,132.048c-3.432-9.816,1.086-16.841,6.316-24.974
				c5.702-8.864,12.164-18.912,10.173-35.372l0.992-0.119c2.035,16.816-4.53,27.025-10.323,36.032
				c-5.09,7.913-9.485,14.747-6.215,24.103L603.805,132.048z"/>
			<path style="fill:#602F55;" d="M594.681,107.219c-2.095-7.793-8.576-11.518-15.439-15.461
				c-9.069-5.211-19.349-11.118-20.354-27.828l0.998-0.061c0.973,16.173,10.571,21.689,19.854,27.023
				c7.048,4.049,13.704,7.874,15.905,16.067L594.681,107.219z"/>
			<path style="fill:#602F55;" d="M588.334,183.239c-4.225-7.344-3.013-13.137-1.477-20.471c2.1-10.028,4.712-22.509-4.645-45.731
				l0.928-0.373c9.47,23.504,6.823,36.148,4.696,46.31c-1.492,7.125-2.67,12.754,1.365,19.768L588.334,183.239z"/>
			<path style="fill:#602F55;" d="M647.28,250.178l-0.766-0.645c5.397-6.412,6.01-14.596,6.718-24.071
				c1.171-15.664,2.628-35.158,27.709-54.51l0.611,0.791c-24.729,19.08-26.167,38.327-27.323,53.793
				C653.509,235.184,652.886,243.517,647.28,250.178z"/>
			<path style="fill:#602F55;" d="M605.052,315.149l-0.926-0.377c2.398-5.891,0.618-10.911-1.846-17.86
				c-3.886-10.961-9.208-25.972-2.723-55.476l0.977,0.215c-6.424,29.225-1.157,44.08,2.69,54.927
				C605.761,303.735,607.595,308.906,605.052,315.149z"/>
			<path style="fill:#602F55;" d="M610.34,150.579c-0.596-10.953,2.8-14.822,6.082-18.565c2.007-2.286,3.901-4.446,4.819-8.196
				l0.971,0.238c-0.976,3.986-3.041,6.341-5.038,8.618c-3.15,3.592-6.409,7.306-5.836,17.851L610.34,150.579z"/>
			<path style="fill:#602F55;" d="M612.771,138.675l-0.025-1c7.357-0.18,13.034-2.778,16.871-7.725
				c2.871-3.699,3.582-7.404,3.589-7.441l0.984,0.181C634.16,122.844,631.13,138.225,612.771,138.675z"/>
			<path style="fill:#602F55;" d="M620.972,194.671c-0.151-0.063-15.246-6.416-21.766-23.856l0.938-0.35
				c6.367,17.035,21.06,23.22,21.207,23.28L620.972,194.671z"/>
			<path style="fill:#602F55;" d="M606.594,182.434l-0.94-0.344c5.27-14.391-2.882-27.702-2.965-27.835l0.848-0.53
				C603.623,153.862,612.034,167.575,606.594,182.434z"/>
			<path style="fill:#602F55;" d="M619.879,246.01l-0.963-0.271c1.961-6.955,5.982-10.829,9.869-14.575
				c3.643-3.51,7.083-6.824,8.893-12.5l0.953,0.305c-1.888,5.916-5.581,9.475-9.153,12.916
				C625.687,235.537,621.766,239.314,619.879,246.01z"/>
			<path style="fill:#602F55;" d="M631.1,229.226c-5.008-20.724,5.191-40.404,5.295-40.601l0.885,0.467
				c-0.102,0.193-10.125,19.551-5.207,39.899L631.1,229.226z"/>
			<path style="fill:#602F55;" d="M659.918,276.178l-0.783-0.623c6.414-8.053,7.837-20.105,7.851-20.225l0.994,0.111
				C667.966,255.566,666.513,267.897,659.918,276.178z"/>
			<path style="fill:#602F55;" d="M666.08,263.396l-0.316-0.949c8.696-2.894,9.038-12.668,9.04-12.767l1,0.025
				C675.801,249.811,675.435,260.283,666.08,263.396z"/>
			<path style="fill:#602F55;" d="M579.149,309.813c-0.066-0.089-6.777-8.915-17.12-11.949l0.281-0.959
				c10.67,3.13,17.571,12.218,17.64,12.309L579.149,309.813z"/>
			<path style="fill:#602F55;" d="M593.43,323.407c-0.055-0.133-0.081-0.324-0.183-1.114c-2.391-18.642-9.335-29.086-14.739-34.564
				l0.713-0.703c5.512,5.589,12.592,16.222,15.019,35.14c0.061,0.477,0.098,0.784,0.126,0.893L593.43,323.407z"/>
			<path style="fill:#602F55;" d="M589.33,303.19l-0.932-0.365c4.694-11.972-3.93-23.68-4.017-23.797l0.799-0.601
				C585.273,278.55,594.231,290.692,589.33,303.19z"/>
			<path style="fill:#602F55;" d="M547.619,256.235c-7.059-25.979,7.445-52.049,7.592-52.309l0.871,0.492
				c-0.146,0.257-14.446,25.979-7.498,51.555L547.619,256.235z"/>
			<path style="fill:#602F55;" d="M547.523,225.489c-9.994-20.538,3.946-37.345,4.089-37.512l0.763,0.646
				c-0.138,0.163-13.655,16.488-3.953,36.428L547.523,225.489z"/>
			<path style="fill:#602F55;" d="M546.304,240.537l-0.26-0.965c12.017-3.229,14.011-16.593,14.029-16.728l0.99,0.139
				C561.044,223.124,558.953,237.139,546.304,240.537z"/>
			<path style="fill:#602F55;" d="M557.297,271.257c-0.11-0.132-11.287-13.154-31.832-13.154v-1
				c21.029,0,32.484,13.377,32.598,13.512L557.297,271.257z"/>
			<path style="fill:#602F55;" d="M539.137,259.833c-1.316-10.181-13.054-12.002-13.172-12.018l0.143-0.99
				c0.126,0.019,12.607,1.94,14.021,12.88L539.137,259.833z"/>
			<path style="fill:#602F55;" d="M528.362,214.145c-24.213-19.844-20.015-45.018-19.97-45.27l0.984,0.176
				c-0.044,0.247-4.124,24.862,19.62,44.32L528.362,214.145z"/>
			<path style="fill:#602F55;" d="M512.205,191.793l-0.504-0.863c10.897-6.365,4.096-28.301,4.025-28.521l0.953-0.303
				c0.018,0.057,1.804,5.75,2.162,12.184C519.323,182.923,517.028,188.975,512.205,191.793z"/>
			<path style="fill:#602F55;" d="M509.368,183.935c-15.633-7.932-15.168-22.892-15.162-23.042l1,0.043
				c-0.007,0.144-0.427,14.476,14.615,22.107L509.368,183.935z"/>
			<path style="fill:#602F55;" d="M630.544,121.893c0,1.702,1.412,3.082,3.153,3.082s3.153-1.38,3.153-3.082
				s-1.412-3.082-3.153-3.082S630.544,120.19,630.544,121.893z"/>
			<path style="fill:#602F55;" d="M617.456,122.576c0,2.608,2.163,4.723,4.831,4.723s4.831-2.114,4.831-4.723
				s-2.163-4.722-4.831-4.722S617.456,119.968,617.456,122.576z"/>
			<path style="fill:#602F55;" d="M597.054,151.47c0,2.608,2.163,4.723,4.831,4.723c2.668,0,4.831-2.114,4.831-4.723
				c0-2.608-2.163-4.722-4.831-4.722C599.217,146.748,597.054,148.862,597.054,151.47z"/>
			<path style="fill:#602F55;" d="M594.037,168.963c0,2.608,2.163,4.723,4.831,4.723c2.668,0,4.831-2.114,4.831-4.723
				s-2.163-4.722-4.831-4.722C596.2,164.241,594.037,166.355,594.037,168.963z"/>
			<path style="fill:#602F55;" d="M566.144,186.638c0,1.739,1.442,3.149,3.221,3.149c1.779,0,3.221-1.41,3.221-3.149
				s-1.442-3.149-3.221-3.149C567.586,183.489,566.144,184.899,566.144,186.638z"/>
			<ellipse style="fill:#602F55;" cx="636.837" cy="188.301" rx="4.831" ry="4.723"/>
			<path style="fill:#602F55;" d="M725.439,210.345c0,1.792,1.486,3.245,3.319,3.245c1.833,0,3.32-1.453,3.32-3.245
				c0-1.792-1.486-3.245-3.32-3.245C726.925,207.1,725.439,208.553,725.439,210.345z"/>
			<path style="fill:#602F55;" d="M633.649,218.164c0,2.608,2.163,4.723,4.831,4.723c2.668,0,4.831-2.114,4.831-4.723
				s-2.163-4.723-4.831-4.723C635.812,213.441,633.649,215.556,633.649,218.164z"/>
			<path style="fill:#602F55;" d="M672.443,247.094c0,2.372,1.967,4.295,4.394,4.295c2.427,0,4.394-1.923,4.394-4.295
				s-1.967-4.295-4.394-4.295C674.411,242.799,672.443,244.722,672.443,247.094z"/>
			<path style="fill:#602F55;" d="M663.089,253.989c0,2.372,1.967,4.295,4.394,4.295c2.427,0,4.394-1.923,4.394-4.295
				c0-2.372-1.967-4.295-4.394-4.295C665.056,249.693,663.089,251.617,663.089,253.989z"/>
			<ellipse style="fill:#602F55;" cx="584.781" cy="278.728" rx="4.831" ry="4.723"/>
			<path style="fill:#602F55;" d="M576.34,288.743c0,1.949,1.616,3.529,3.61,3.529s3.61-1.58,3.61-3.529
				c0-1.949-1.616-3.529-3.61-3.529S576.34,286.794,576.34,288.743z"/>
			<path style="fill:#602F55;" d="M558.168,296.83c0,2.608,2.163,4.723,4.831,4.723c2.668,0,4.831-2.114,4.831-4.723
				c0-2.608-2.163-4.723-4.831-4.723C560.331,292.107,558.168,294.222,558.168,296.83z"/>
			<ellipse style="fill:#602F55;" cx="527.306" cy="257.832" rx="4.831" ry="4.723"/>
			<ellipse style="fill:#602F55;" cx="524.526" cy="247.319" rx="4.831" ry="4.723"/>
			<path style="fill:#602F55;" d="M555.142,223.538c0,2.608,2.163,4.723,4.831,4.723s4.831-2.114,4.831-4.723
				s-2.163-4.723-4.831-4.723S555.142,220.93,555.142,223.538z"/>
			<path style="fill:#602F55;" d="M551.232,206.033c0,1.861,1.543,3.369,3.446,3.369s3.446-1.508,3.446-3.369
				c0-1.86-1.543-3.369-3.446-3.369S551.232,204.172,551.232,206.033z"/>
			<ellipse style="fill:#602F55;" cx="551.993" cy="189.558" rx="4.831" ry="4.723"/>
			<path style="fill:#602F55;" d="M503.729,169.944c0,2.608,2.163,4.722,4.831,4.722c2.668,0,4.831-2.114,4.831-4.722
				s-2.163-4.723-4.831-4.723C505.892,165.221,503.729,167.336,503.729,169.944z"/>
			<path style="fill:#602F55;" d="M511.953,160.915c0,2.608,2.163,4.723,4.831,4.723c2.668,0,4.831-2.114,4.831-4.723
				s-2.163-4.723-4.831-4.723C514.116,156.193,511.953,158.307,511.953,160.915z"/>
			<path style="fill:#602F55;" d="M489.871,160.339c0,2.608,2.163,4.723,4.831,4.723c2.668,0,4.831-2.114,4.831-4.723
				s-2.163-4.723-4.831-4.723C492.034,155.616,489.871,157.73,489.871,160.339z"/>
			<path style="fill:#602F55;" d="M660.781,195.371c-0.008,0-0.013,0-0.015,0l0.009-1c0.379,0.026,37.997-0.185,67.053-42.534
				l0.824,0.566c-15.342,22.361-32.964,32.852-45.046,37.715C670.727,195.302,661.205,195.371,660.781,195.371z"/>
			<path style="fill:#602F55;" d="M655.067,213.931l-0.199-0.98c0.118-0.023,11.862-2.494,19.268-11.211l0.762,0.646
				C667.264,211.374,655.188,213.907,655.067,213.931z"/>
			<ellipse style="fill:#602F55;" cx="674.517" cy="200.857" rx="4.831" ry="4.723"/>
			<path style="fill:#602F55;" d="M723.77,223.287c0,2.372,1.967,4.295,4.394,4.295c2.427,0,4.394-1.923,4.394-4.295
				c0-2.372-1.967-4.295-4.394-4.295C725.737,218.992,723.77,220.915,723.77,223.287z"/>
			<path style="fill:#602F55;" d="M661.641,192.773c-0.197-0.268-4.778-6.775-0.041-23.449l0.963,0.273
				c-4.585,16.134-0.159,22.522-0.114,22.586L661.641,192.773z"/>
			<path style="fill:#602F55;" d="M663.689,172.191c-1.356,1.043-3.32,0.813-4.387-0.512c-1.067-1.326-0.832-3.246,0.524-4.289
				c1.356-1.043,3.32-0.813,4.387,0.512C665.279,169.228,665.045,171.148,663.689,172.191z"/>
			<path style="fill:#602F55;" d="M660.977,189.961c-9.004-1.068-8.611-9.466-8.607-9.55l0.998,0.058
				c-0.018,0.308-0.33,7.544,7.726,8.5L660.977,189.961z"/>
			<ellipse style="fill:#602F55;" cx="652.864" cy="179.631" rx="4.345" ry="4.247"/>
			<path style="fill:#602F55;" d="M631.376,153.51l-0.982-0.191c0.042-0.213,4.365-21.616,23.054-42.141l0.74,0.674
				C635.685,132.171,631.417,153.298,631.376,153.51z"/>
			<path style="fill:#602F55;" d="M642.057,126.557c-4.467-13.657,5.167-25.9,5.265-26.022l0.781,0.625
				c-0.095,0.118-9.392,11.951-5.095,25.087L642.057,126.557z"/>
			<path style="fill:#602F55;" d="M640.944,119.209c-5.654-4.299-6.967-9.464-7.072-13.04c-0.113-3.868,1.097-6.687,1.148-6.805
				l0.916,0.399c-0.012,0.027-1.18,2.763-1.063,6.416c0.156,4.867,2.402,8.983,6.677,12.232L640.944,119.209z"/>
			<ellipse style="fill:#602F55;" cx="647.757" cy="99.591" rx="4.831" ry="4.723"/>
			<path style="fill:#602F55;" d="M650.664,111.515c0,1.702,1.412,3.082,3.153,3.082c1.741,0,3.153-1.38,3.153-3.082
				s-1.412-3.082-3.153-3.082C652.076,108.432,650.664,109.812,650.664,111.515z"/>
			<path style="fill:#602F55;" d="M632.495,99.2c0.278,1.681,1.897,2.822,3.617,2.55c1.719-0.272,2.887-1.855,2.609-3.535
				c-0.278-1.68-1.897-2.822-3.617-2.55C633.385,95.937,632.217,97.52,632.495,99.2z"/>
			<path style="fill:#602F55;" d="M660.988,149.866c-7.512-8.091-20.112-5.847-20.24-5.825l-0.184-0.982
				c0.132-0.024,13.268-2.372,21.156,6.128L660.988,149.866z"/>
			<path style="fill:#602F55;" d="M657.687,156.324c-0.189-0.21-4.628-5.216-3.945-11.559l0.994,0.107
				c-0.634,5.89,3.65,10.733,3.694,10.782L657.687,156.324z"/>
			<ellipse style="fill:#602F55;" cx="661.354" cy="148.757" rx="3.153" ry="3.082"/>
			<ellipse style="fill:#602F55;" cx="656.95" cy="155.203" rx="3.153" ry="3.082"/>
			<path style="fill:#602F55;" d="M687.491,243.299l-0.007-1c0.219-0.002,21.998-0.373,39.471-18.531l0.721,0.693
				C709.9,242.934,687.714,243.297,687.491,243.299z"/>
			<path style="fill:#602F55;" d="M714.834,233.733c-0.67-9.226,3.723-17.029,13.055-23.193l0.551,0.834
				c-9.008,5.95-13.25,13.448-12.607,22.287L714.834,233.733z"/>
			<path style="fill:#602F55;" d="M598.614,193.453c-12.704-7.477-28.387-6.022-28.542-6.009l-0.1-0.994
				c0.162-0.017,16.156-1.507,29.149,6.142L598.614,193.453z"/>
		</g>
		<g>
			<path style="fill:#FF5C7B;" d="M563.309,318.334h-2.279v-6.232h5.694h52.234h5.694v6.232h-2.279c0,0,29.412,51.456,27.566,83.896
				c-2.305,40.501-37.127,54.809-37.127,54.809h-19.971h-19.972c0,0-34.822-14.308-37.127-54.809
				C533.896,369.79,563.309,318.334,563.309,318.334z"/>
			<rect x="563.309" y="317.834" style="fill:#602F55;" width="59.064" height="1"/>
		</g>
		<g>
			<path style="fill:#FFFFFF;" d="M536.073,406.11c12.42-2.517,25.066,0.599,36.561,5.223c5.925,2.383,11.657,5.188,17.411,7.935
				c5.561,2.655,11.058,5.32,17.039,6.968c10.79,2.974,23.708,4.178,33.527-2.185c1.771-1.148,3.52-2.424,5.094-3.824
				c0.358-0.318,0.703-0.648,1.042-0.982c0.593-1.794,1.121-3.66,1.57-5.604c-0.48,0.397-0.961,0.795-1.436,1.199
				c-3.411,2.903-6.801,5.329-11.187,6.572c-8.819,2.499-18.889,1.19-27.248-2.305c-1.683-0.703-3.318-1.517-4.885-2.441
				c-9.39-5.537-16.952-13.559-24.255-21.434c-6.562-7.076-13.11-14.501-21.159-20.019c-3.44-2.358-7.162-4.345-11.144-5.677
				c-1.833-0.613-3.706-1.072-5.602-1.399c-3.722,11.783-6.24,23.88-5.659,34.092C535.818,403.552,535.931,404.844,536.073,406.11z"
				/>
		</g>
		<path style="fill:#FFFFFF;" d="M649.99,400.092c0.281-17.705-7.917-40.361-15.466-57.34c0,0-13.544,12.42-35.398,10.888
			c-21.854-1.532-42.344-18.686-44.039-19.388c-1.223,2.547-2.518,5.33-3.833,8.283C591.19,357.075,573.25,410.672,649.99,400.092z"
			/>
		<line style="fill:#FFFFFF;" x1="622.373" y1="318.334" x2="563.309" y2="318.334"/>
	</g>
	<path style="fill:#7F84DE;" d="M33.368,457.039c0,0,139.328,25.602,339.254,25.602s339.254-25.601,339.254-25.601L33.368,457.039z"
		/>
	<g>
		<g>
			<path style="fill:#FFFFFF;" d="M213.298,317.561c-0.407-13.988,40.474-39.403,41.491-74.42
				c0.61-25.757-16.068-40.441-16.068-40.441h-65.899c0,0-16.678,14.684-16.068,40.441c1.017,35.017,41.898,60.432,41.492,74.42
				c0.407,13.988-40.475,39.404-41.492,74.42c-0.61,25.757,16.068,40.441,16.068,40.441h65.899c0,0,16.678-14.684,16.068-40.441
				C253.772,356.965,212.891,331.55,213.298,317.561z"/>
			<path style="fill:#FFC549;" d="M242.538,393.242c0,0-18.511-12.971-34.681-14.048c-0.014-10.875-0.077-49.58-0.259-61.633
				c-0.126-7.423,7.285-15.229,15.77-25.094c5.331-6.2,11.265-13.102,16.159-20.648h-67.51c4.894,7.546,10.827,14.449,16.159,20.648
				c8.485,9.866,15.896,17.671,15.77,25.094c-0.181,12.053-0.239,50.757-0.251,61.632c-16.172,1.073-34.689,14.049-34.689,14.049
				h-7.26c-0.047,18.467,9.623,30.447,13.132,34.18h61.801c3.535-3.732,13.165-15.618,13.121-34.18H242.538z"/>
		</g>
		<g>
			<g>
				<rect x="140.122" y="200.254" style="fill:#7C4167;" width="10.481" height="234.616"/>
				<rect x="260.941" y="200.254" style="fill:#7C4167;" width="10.481" height="234.616"/>
			</g>
			<g>
				<path style="fill:#7C4167;" d="M281.047,185.204h-4.89l-3.378-6.011c-0.384-0.684-1.108-1.108-1.894-1.108H140.659
					c-0.785,0-1.509,0.424-1.894,1.108l-3.378,6.011h-4.89c-1.28,0-2.318,1.038-2.318,2.318v13.871c0,1.28,1.038,2.318,2.318,2.318
					h150.55c1.28,0,2.318-1.038,2.318-2.318v-13.871C283.365,186.242,282.327,185.204,281.047,185.204z"/>
				<rect x="135.388" y="184.704" style="fill:#3A1934;" width="140.77" height="1"/>
			</g>
			<g>
				<path style="fill:#7C4167;" d="M130.497,449.92h4.89l3.378,6.011c0.385,0.684,1.108,1.108,1.894,1.108h130.227
					c0.785,0,1.509-0.424,1.894-1.108l3.378-6.011h4.89c1.28,0,2.318-1.038,2.318-2.318V433.73c0-1.28-1.038-2.318-2.318-2.318
					h-150.55c-1.28,0-2.318,1.038-2.318,2.318v13.871C128.179,448.882,129.217,449.92,130.497,449.92z"/>
				<rect x="135.388" y="449.42" style="fill:#3A1934;" width="140.769" height="1"/>
			</g>
			<rect x="140.122" y="203.211" style="fill:#3A1934;" width="10.481" height="1"/>
			<rect x="260.941" y="203.211" style="fill:#3A1934;" width="10.481" height="1"/>
			<rect x="140.122" y="430.912" style="fill:#3A1934;" width="10.481" height="1"/>
			<rect x="260.941" y="430.912" style="fill:#3A1934;" width="10.481" height="1"/>
		</g>
	</g>
	<g>
		<path style="fill:#FF5C7B;" d="M516.454,56.54h-85.527v8.426H319.056V56.54h-85.509c-6.63,0-12.004,5.374-12.004,12.004v376.492
			c0,6.63,5.374,12.004,12.004,12.004h282.907c6.629,0,12.004-5.374,12.004-12.004V68.544
			C528.457,61.914,523.083,56.54,516.454,56.54z"/>
		<rect x="240.921" y="71.05" style="fill:#FFFFFF;" width="268.159" height="373.085"/>
		<g>
			<rect x="323.056" y="58.766" style="fill:#FFC549;" width="103.871" height="12.285"/>
			<rect x="323.056" y="61.836" style="fill:#602F55;" width="103.871" height="1"/>
			<path style="fill:#FFC549;" d="M381.432,88.177h-12.863c-1.521,0-2.832-0.916-3.41-2.226l-37.321-0.016
				c-4.484-0.002-8.133-3.653-8.133-8.138l0.002-8.75c0.001-0.896,0.35-1.736,0.981-2.368c0.633-0.632,1.473-0.979,2.366-0.979
				c0.001,0,0.002,0,0.003,0l-0.002,3c-0.001,0-0.001,0-0.001,0c-0.119,0-0.199,0.055-0.245,0.102
				c-0.047,0.047-0.103,0.127-0.103,0.247l-0.002,8.749c0,2.831,2.304,5.136,5.135,5.138l40.004,0.017v1.499
				c0,0.4,0.325,0.726,0.726,0.726h12.863c0.4,0,0.725-0.325,0.725-0.726V82.95l39.837,0.018h0.001c1.4,0,2.717-0.545,3.707-1.534
				c0.99-0.99,1.536-2.307,1.536-3.707l0.002-8.643c0-0.192-0.156-0.349-0.349-0.349l0.002-3c1.846,0.002,3.347,1.504,3.347,3.349
				l-0.002,8.643c-0.001,4.545-3.699,8.241-8.243,8.241c-0.001,0-0.002,0-0.002,0l-37.151-0.016
				C384.264,87.26,382.952,88.177,381.432,88.177z"/>
		</g>
	</g>
	<g>
		<path style="fill:#602F55;" d="M481.142,158.558h-5v-0.75h5V158.558z M470.142,158.558h-5v-0.75h5V158.558z M459.142,158.558h-5
			v-0.75h5V158.558z M448.142,158.558h-5v-0.75h5V158.558z M437.142,158.558h-5v-0.75h5V158.558z M426.142,158.558h-5v-0.75h5
			V158.558z M415.142,158.558h-5v-0.75h5V158.558z M404.142,158.558h-5v-0.75h5V158.558z M393.142,158.558h-5v-0.75h5V158.558z
			 M382.142,158.558h-5v-0.75h5V158.558z M371.142,158.558h-5v-0.75h5V158.558z M360.142,158.558h-5v-0.75h5V158.558z
			 M349.142,158.558h-5v-0.75h5V158.558z M338.142,158.558h-5v-0.75h5V158.558z M327.142,158.558h-5v-0.75h5V158.558z
			 M316.142,158.558h-5v-0.75h5V158.558z M305.142,158.558h-5v-0.75h5V158.558z M294.142,158.558h-5v-0.75h5V158.558z
			 M283.142,158.558h-5v-0.75h5V158.558z M272.142,158.558h-5v-0.75h5V158.558z"/>
		<path style="fill:#602F55;" d="M481.142,183.96h-5v-0.75h5V183.96z M470.142,183.96h-5v-0.75h5V183.96z M459.142,183.96h-5v-0.75
			h5V183.96z M448.142,183.96h-5v-0.75h5V183.96z M437.142,183.96h-5v-0.75h5V183.96z M426.142,183.96h-5v-0.75h5V183.96z
			 M415.142,183.96h-5v-0.75h5V183.96z M404.142,183.96h-5v-0.75h5V183.96z M393.142,183.96h-5v-0.75h5V183.96z M382.142,183.96h-5
			v-0.75h5V183.96z M371.142,183.96h-5v-0.75h5V183.96z M360.142,183.96h-5v-0.75h5V183.96z M349.142,183.96h-5v-0.75h5V183.96z
			 M338.142,183.96h-5v-0.75h5V183.96z M327.142,183.96h-5v-0.75h5V183.96z M316.142,183.96h-5v-0.75h5V183.96z M305.142,183.96h-5
			v-0.75h5V183.96z M294.142,183.96h-5v-0.75h5V183.96z M283.142,183.96h-5v-0.75h5V183.96z M272.142,183.96h-5v-0.75h5V183.96z"/>
		<path style="fill:#602F55;" d="M481.142,209.361h-5v-0.75h5V209.361z M470.142,209.361h-5v-0.75h5V209.361z M459.142,209.361h-5
			v-0.75h5V209.361z M448.142,209.361h-5v-0.75h5V209.361z M437.142,209.361h-5v-0.75h5V209.361z M426.142,209.361h-5v-0.75h5
			V209.361z M415.142,209.361h-5v-0.75h5V209.361z M404.142,209.361h-5v-0.75h5V209.361z M393.142,209.361h-5v-0.75h5V209.361z
			 M382.142,209.361h-5v-0.75h5V209.361z M371.142,209.361h-5v-0.75h5V209.361z M360.142,209.361h-5v-0.75h5V209.361z
			 M349.142,209.361h-5v-0.75h5V209.361z M338.142,209.361h-5v-0.75h5V209.361z M327.142,209.361h-5v-0.75h5V209.361z
			 M316.142,209.361h-5v-0.75h5V209.361z M305.142,209.361h-5v-0.75h5V209.361z M294.142,209.361h-5v-0.75h5V209.361z
			 M283.142,209.361h-5v-0.75h5V209.361z M272.142,209.361h-5v-0.75h5V209.361z"/>
		<path style="fill:#602F55;" d="M481.142,234.762h-5v-0.75h5V234.762z M470.142,234.762h-5v-0.75h5V234.762z M459.142,234.762h-5
			v-0.75h5V234.762z M448.142,234.762h-5v-0.75h5V234.762z M437.142,234.762h-5v-0.75h5V234.762z M426.142,234.762h-5v-0.75h5
			V234.762z M415.142,234.762h-5v-0.75h5V234.762z M404.142,234.762h-5v-0.75h5V234.762z M393.142,234.762h-5v-0.75h5V234.762z
			 M382.142,234.762h-5v-0.75h5V234.762z M371.142,234.762h-5v-0.75h5V234.762z M360.142,234.762h-5v-0.75h5V234.762z
			 M349.142,234.762h-5v-0.75h5V234.762z M338.142,234.762h-5v-0.75h5V234.762z M327.142,234.762h-5v-0.75h5V234.762z
			 M316.142,234.762h-5v-0.75h5V234.762z M305.142,234.762h-5v-0.75h5V234.762z M294.142,234.762h-5v-0.75h5V234.762z
			 M283.142,234.762h-5v-0.75h5V234.762z M272.142,234.762h-5v-0.75h5V234.762z"/>
		<path style="fill:#602F55;" d="M481.142,260.163h-5v-0.75h5V260.163z M470.142,260.163h-5v-0.75h5V260.163z M459.142,260.163h-5
			v-0.75h5V260.163z M448.142,260.163h-5v-0.75h5V260.163z M437.142,260.163h-5v-0.75h5V260.163z M426.142,260.163h-5v-0.75h5
			V260.163z M415.142,260.163h-5v-0.75h5V260.163z M404.142,260.163h-5v-0.75h5V260.163z M393.142,260.163h-5v-0.75h5V260.163z
			 M382.142,260.163h-5v-0.75h5V260.163z M371.142,260.163h-5v-0.75h5V260.163z M360.142,260.163h-5v-0.75h5V260.163z
			 M349.142,260.163h-5v-0.75h5V260.163z M338.142,260.163h-5v-0.75h5V260.163z M327.142,260.163h-5v-0.75h5V260.163z
			 M316.142,260.163h-5v-0.75h5V260.163z M305.142,260.163h-5v-0.75h5V260.163z M294.142,260.163h-5v-0.75h5V260.163z
			 M283.142,260.163h-5v-0.75h5V260.163z M272.142,260.163h-5v-0.75h5V260.163z"/>
		<path style="fill:#602F55;" d="M481.142,285.564h-5v-0.75h5V285.564z M470.142,285.564h-5v-0.75h5V285.564z M459.142,285.564h-5
			v-0.75h5V285.564z M448.142,285.564h-5v-0.75h5V285.564z M437.142,285.564h-5v-0.75h5V285.564z M426.142,285.564h-5v-0.75h5
			V285.564z M415.142,285.564h-5v-0.75h5V285.564z M404.142,285.564h-5v-0.75h5V285.564z M393.142,285.564h-5v-0.75h5V285.564z
			 M382.142,285.564h-5v-0.75h5V285.564z M371.142,285.564h-5v-0.75h5V285.564z M360.142,285.564h-5v-0.75h5V285.564z
			 M349.142,285.564h-5v-0.75h5V285.564z M338.142,285.564h-5v-0.75h5V285.564z M327.142,285.564h-5v-0.75h5V285.564z
			 M316.142,285.564h-5v-0.75h5V285.564z M305.142,285.564h-5v-0.75h5V285.564z M294.142,285.564h-5v-0.75h5V285.564z
			 M283.142,285.564h-5v-0.75h5V285.564z M272.142,285.564h-5v-0.75h5V285.564z"/>
		<path style="fill:#602F55;" d="M481.142,310.966h-5v-0.75h5V310.966z M470.142,310.966h-5v-0.75h5V310.966z M459.142,310.966h-5
			v-0.75h5V310.966z M448.142,310.966h-5v-0.75h5V310.966z M437.142,310.966h-5v-0.75h5V310.966z M426.142,310.966h-5v-0.75h5
			V310.966z M415.142,310.966h-5v-0.75h5V310.966z M404.142,310.966h-5v-0.75h5V310.966z M393.142,310.966h-5v-0.75h5V310.966z
			 M382.142,310.966h-5v-0.75h5V310.966z M371.142,310.966h-5v-0.75h5V310.966z M360.142,310.966h-5v-0.75h5V310.966z
			 M349.142,310.966h-5v-0.75h5V310.966z M338.142,310.966h-5v-0.75h5V310.966z M327.142,310.966h-5v-0.75h5V310.966z
			 M316.142,310.966h-5v-0.75h5V310.966z M305.142,310.966h-5v-0.75h5V310.966z M294.142,310.966h-5v-0.75h5V310.966z
			 M283.142,310.966h-5v-0.75h5V310.966z M272.142,310.966h-5v-0.75h5V310.966z"/>
		<path style="fill:#602F55;" d="M481.142,336.367h-5v-0.75h5V336.367z M470.142,336.367h-5v-0.75h5V336.367z M459.142,336.367h-5
			v-0.75h5V336.367z M448.142,336.367h-5v-0.75h5V336.367z M437.142,336.367h-5v-0.75h5V336.367z M426.142,336.367h-5v-0.75h5
			V336.367z M415.142,336.367h-5v-0.75h5V336.367z M404.142,336.367h-5v-0.75h5V336.367z M393.142,336.367h-5v-0.75h5V336.367z
			 M382.142,336.367h-5v-0.75h5V336.367z M371.142,336.367h-5v-0.75h5V336.367z M360.142,336.367h-5v-0.75h5V336.367z
			 M349.142,336.367h-5v-0.75h5V336.367z M338.142,336.367h-5v-0.75h5V336.367z M327.142,336.367h-5v-0.75h5V336.367z
			 M316.142,336.367h-5v-0.75h5V336.367z M305.142,336.367h-5v-0.75h5V336.367z M294.142,336.367h-5v-0.75h5V336.367z
			 M283.142,336.367h-5v-0.75h5V336.367z M272.142,336.367h-5v-0.75h5V336.367z"/>
		<path style="fill:#602F55;" d="M481.142,361.768h-5v-0.75h5V361.768z M470.142,361.768h-5v-0.75h5V361.768z M459.142,361.768h-5
			v-0.75h5V361.768z M448.142,361.768h-5v-0.75h5V361.768z M437.142,361.768h-5v-0.75h5V361.768z M426.142,361.768h-5v-0.75h5
			V361.768z M415.142,361.768h-5v-0.75h5V361.768z M404.142,361.768h-5v-0.75h5V361.768z M393.142,361.768h-5v-0.75h5V361.768z
			 M382.142,361.768h-5v-0.75h5V361.768z M371.142,361.768h-5v-0.75h5V361.768z M360.142,361.768h-5v-0.75h5V361.768z
			 M349.142,361.768h-5v-0.75h5V361.768z M338.142,361.768h-5v-0.75h5V361.768z M327.142,361.768h-5v-0.75h5V361.768z
			 M316.142,361.768h-5v-0.75h5V361.768z M305.142,361.768h-5v-0.75h5V361.768z M294.142,361.768h-5v-0.75h5V361.768z
			 M283.142,361.768h-5v-0.75h5V361.768z M272.142,361.768h-5v-0.75h5V361.768z"/>
		<path style="fill:#602F55;" d="M481.142,387.17h-5v-0.75h5V387.17z M470.142,387.17h-5v-0.75h5V387.17z M459.142,387.17h-5v-0.75
			h5V387.17z M448.142,387.17h-5v-0.75h5V387.17z M437.142,387.17h-5v-0.75h5V387.17z M426.142,387.17h-5v-0.75h5V387.17z
			 M415.142,387.17h-5v-0.75h5V387.17z M404.142,387.17h-5v-0.75h5V387.17z M393.142,387.17h-5v-0.75h5V387.17z M382.142,387.17h-5
			v-0.75h5V387.17z M371.142,387.17h-5v-0.75h5V387.17z M360.142,387.17h-5v-0.75h5V387.17z M349.142,387.17h-5v-0.75h5V387.17z
			 M338.142,387.17h-5v-0.75h5V387.17z M327.142,387.17h-5v-0.75h5V387.17z M316.142,387.17h-5v-0.75h5V387.17z M305.142,387.17h-5
			v-0.75h5V387.17z M294.142,387.17h-5v-0.75h5V387.17z M283.142,387.17h-5v-0.75h5V387.17z M272.142,387.17h-5v-0.75h5V387.17z"/>
		<path style="fill:#602F55;" d="M481.142,412.571h-5v-0.75h5V412.571z M470.142,412.571h-5v-0.75h5V412.571z M459.142,412.571h-5
			v-0.75h5V412.571z M448.142,412.571h-5v-0.75h5V412.571z M437.142,412.571h-5v-0.75h5V412.571z M426.142,412.571h-5v-0.75h5
			V412.571z M415.142,412.571h-5v-0.75h5V412.571z M404.142,412.571h-5v-0.75h5V412.571z M393.142,412.571h-5v-0.75h5V412.571z
			 M382.142,412.571h-5v-0.75h5V412.571z M371.142,412.571h-5v-0.75h5V412.571z M360.142,412.571h-5v-0.75h5V412.571z
			 M349.142,412.571h-5v-0.75h5V412.571z M338.142,412.571h-5v-0.75h5V412.571z M327.142,412.571h-5v-0.75h5V412.571z
			 M316.142,412.571h-5v-0.75h5V412.571z M305.142,412.571h-5v-0.75h5V412.571z M294.142,412.571h-5v-0.75h5V412.571z
			 M283.142,412.571h-5v-0.75h5V412.571z M272.142,412.571h-5v-0.75h5V412.571z"/>
	</g>
	<g>
		<g>
			<path style="fill:#FFAA99;" d="M660.855,308.04c0,0-5.822,14.925-7.763,17.467c-1.941,2.542-7.024,2.68-7.024,2.68l0.37-20.539
				l9.427-0.701L660.855,308.04z"/>
			<polygon style="fill:#FFFFFF;" points="659.676,221.653 664.28,309.333 642.834,309.472 642.834,250.071 			"/>
			<path style="fill:#FFFFFF;" d="M573.486,410.321l-9.149,6.515c0,0-11.045,3.327-12.939,6.1c-1.895,2.772-0.693,8.41-0.693,8.41
				h44.369c2.175,0,3.879-1.849,3.723-4.019c-0.415-5.762-1.424-12.371-2.991-17.007H573.486z"/>
			<path style="fill:#FFFFFF;" d="M639.169,436.014l3.696,6.515c0,0,9.473,4.51,11.716,7.208c2.244,2.698,0.439,7.301,0.439,7.301
				l-37.545,0c-2.117,0-3.773-1.801-3.623-3.913c0.41-5.787,1.422-12.449,2.998-17.112H639.169z"/>
			<path style="fill:#602F55;" d="M633.205,447.393l-0.898-0.44c2.539-5.188,10.249-4.933,10.579-4.925l-0.04,1
				C642.764,443.025,635.456,442.793,633.205,447.393z"/>
			<path style="fill:#602F55;" d="M568.905,418.457c-1.775-1.267-4.51-1.121-4.539-1.121l-0.059-0.998
				c0.127-0.011,3.117-0.167,5.18,1.305L568.905,418.457z"/>
			<rect x="552.086" y="427.2" style="fill:#602F55;" width="46.72" height="1"/>
			<rect x="613.662" y="452.892" style="fill:#602F55;" width="39.764" height="1"/>
			<path style="fill:#FFAA99;" d="M540.436,226.933c0,0-6.493-16.955-7.299-17.892c-0.807-0.938-4.679-2.845-4.679-2.845v27.405l0,0
				c0.97,1.322,2.869,1.518,4.089,0.422L540.436,226.933z"/>
			<g>
				<g>
					<path style="fill:#FF5C7B;" d="M616.941,194.238L616.941,194.238c-8.21,0-14.865-6.655-14.865-14.865v-4.603
						c0-8.21,6.655-14.865,14.865-14.865l0,0c8.21,0,14.865,6.655,14.865,14.865v4.603
						C631.806,187.583,625.151,194.238,616.941,194.238z"/>
					<path style="fill:#FFAA99;" d="M627.633,188.241h-9.97h-1.393h-9.971l-1.393,14.648c7.831,8.012,15.865,8.249,24.121,0
						L627.633,188.241z"/>
					<path style="fill:#FFAA99;" d="M616.966,196.698L616.966,196.698c-6.788,0-12.292-5.503-12.292-12.292v-8.872
						c0-6.788,5.503-12.292,12.292-12.292l0,0c6.788,0,12.291,5.503,12.291,12.292v8.872
						C629.257,191.195,623.754,196.698,616.966,196.698z"/>
					<path style="fill:#602F55;" d="M616.966,197.198c-4.039,0-7.758-1.849-10.201-5.073l0.797-0.604
						c2.253,2.972,5.681,4.677,9.404,4.677c3.744,0,7.184-1.72,9.437-4.719l0.799,0.6
						C624.758,195.333,621.027,197.198,616.966,197.198z"/>
					<path style="fill:#FFAA99;" d="M606.95,180.143c0,2.258-1.831,4.089-4.089,4.089c-2.258,0-4.089-1.831-4.089-4.089
						c0-2.259,1.831-4.09,4.089-4.09C605.119,176.054,606.95,177.885,606.95,180.143z"/>
					<path style="fill:#FFAA99;" d="M635.16,180.143c0,2.258-1.831,4.089-4.09,4.089c-2.258,0-4.089-1.831-4.089-4.089
						c0-2.259,1.831-4.09,4.089-4.09C633.329,176.054,635.16,177.885,635.16,180.143z"/>
					<g>
						
							<rect x="599.302" y="179.011" transform="matrix(0.5003 -0.8658 0.8658 0.5003 145.2191 610.6543)" style="fill:#602F55;" width="4.743" height="0.999"/>
						
							<rect x="601.605" y="179.647" transform="matrix(0.5211 -0.8535 0.8535 0.5211 134.2545 600.3381)" style="fill:#602F55;" width="1" height="1.769"/>
					</g>
					<g>
						
							<rect x="631.758" y="177.139" transform="matrix(0.8657 -0.5005 0.5005 0.8657 -4.9577 340.5406)" style="fill:#602F55;" width="0.999" height="4.743"/>
						
							<rect x="630.941" y="180.031" transform="matrix(0.8533 -0.5214 0.5214 0.8533 -1.4501 355.9077)" style="fill:#602F55;" width="1.77" height="1"/>
					</g>
					<path style="fill:#FF5C7B;" d="M623.918,165.292c0,1.777-3.124,3.218-6.977,3.218c-3.853,0-6.977-1.441-6.977-3.218
						c0-1.777,3.124-3.218,6.977-3.218C620.794,162.074,623.918,163.515,623.918,165.292z"/>
				</g>
				<g>
					<path style="fill:#602F55;" d="M613.761,178.289c0,0.545-0.442,0.988-0.988,0.988c-0.545,0-0.988-0.442-0.988-0.988
						c0-0.546,0.442-0.988,0.988-0.988C613.318,177.301,613.761,177.744,613.761,178.289z"/>
					<path style="fill:#602F55;" d="M622.146,178.289c0,0.545-0.442,0.988-0.988,0.988c-0.545,0-0.988-0.442-0.988-0.988
						c0-0.546,0.442-0.988,0.988-0.988C621.704,177.301,622.146,177.744,622.146,178.289z"/>
					<path style="fill:#FFFFFF;" d="M613.682,182.442c0.511,3.951,5.733,4.159,6.567,0
						C617.976,182.442,615.79,182.442,613.682,182.442z"/>
					<path style="fill:#602F55;" d="M616.933,181.708l-0.458-0.336c-0.727-0.534-0.903-1.54-0.404-2.29l0.656-0.983l0.832,0.555
						l-0.656,0.983c-0.202,0.304-0.131,0.712,0.164,0.93l0.458,0.335L616.933,181.708z"/>
					<g>
						<path style="fill:#FFFFFF;" d="M609.714,183.224c-3.267,0-5.924-2.657-5.924-5.923c0-3.266,2.657-5.923,5.924-5.923
							c3.266,0,5.923,2.657,5.923,5.923C615.637,180.567,612.979,183.224,609.714,183.224z M609.714,172.379
							c-2.715,0-4.924,2.208-4.924,4.923c0,2.715,2.209,4.923,4.924,4.923c2.715,0,4.923-2.208,4.923-4.923
							C614.637,174.587,612.429,172.379,609.714,172.379z"/>
						<path style="fill:#FFFFFF;" d="M624.168,183.224c-3.266,0-5.923-2.657-5.923-5.923c0-3.266,2.657-5.923,5.923-5.923
							c3.267,0,5.924,2.657,5.924,5.923C630.092,180.567,627.435,183.224,624.168,183.224z M624.168,172.379
							c-2.715,0-4.923,2.208-4.923,4.923c0,2.715,2.208,4.923,4.923,4.923c2.715,0,4.924-2.208,4.924-4.923
							C629.092,174.587,626.883,172.379,624.168,172.379z"/>
						<path style="fill:#FFFFFF;" d="M618.541,177.14c-1.1-0.733-2.115-0.734-3.197-0.002l-0.561-0.828
							c1.42-0.963,2.873-0.963,4.313-0.002L618.541,177.14z"/>
					</g>
				</g>
			</g>
			<path style="fill:#7C4167;" d="M650.084,280.199h-65.847l-16.73,56.487c-1.571,5.304-2.125,10.856-1.634,16.366l5.104,57.27
				h26.616l-4.752-60.956l19.468-42.547l4.713,0.031l-2.287,129.165h26.708L650.084,280.199z"/>
			<path style="fill:#7C4167;" d="M569.439,404.55c-0.003,0.035,28.754,2.203,28.756,2.167l0.017,5.268H570.43L569.439,404.55z"/>
			
				<rect x="583.446" y="392.152" transform="matrix(0.0789 -0.9969 0.9969 0.0789 133.5243 955.7333)" style="fill:#602F55;" width="0.999" height="26.92"/>
			<polygon style="fill:#7C4167;" points="643.117,430.242 613.813,432.41 613.662,437.677 642.706,437.677 			"/>
			
				<rect x="614.766" y="430.81" transform="matrix(0.9974 -0.0721 0.0721 0.9974 -29.4812 46.4537)" style="fill:#602F55;" width="27.026" height="1.001"/>
			
				<rect x="613.383" y="299.004" transform="matrix(0.1114 -0.9938 0.9938 0.1114 240.6296 882.6693)" style="fill:#602F55;" width="1" height="15.553"/>
			<path style="fill:#602F55;" d="M615.72,296.249l-2.44-0.781c-1.424-0.453-2.376-1.812-2.314-3.304l0.374-9.12l1,0.041
				l-0.374,9.12c-0.044,1.043,0.622,1.993,1.618,2.31l2.441,0.781L615.72,296.249z"/>
			
				<rect x="603.955" y="294.505" transform="matrix(0.0468 -0.9989 0.9989 0.0468 292.3792 896.4191)" style="fill:#602F55;" width="23.906" height="0.999"/>
			<path style="fill:#FFFFFF;" d="M647.064,206.791l-18.198-5.375l-12.108,4.163l-11.689-4.163l-18.202,5.375
				c-6.773,2.39-11.181,9.273-10.748,16.785l6.623,60.322h34.224h34.375l8.175-59.681
				C660.832,214.999,653.838,209.182,647.064,206.791z"/>
			<path style="fill:#FFFFFF;" d="M578.139,214.373l-16.483,29.519l-19.973-19.12l-13.226,12.338l19.104,28.397
				c6.48,9.633,20.254,10.691,28.13,2.161l17.976-19.468L578.139,214.373z"/>
			
				<rect x="564.478" y="242.445" transform="matrix(0.681 -0.7323 0.7323 0.681 -0.6417 492.4903)" style="fill:#602F55;" width="1" height="9.073"/>
			
				<rect x="578.355" y="237.339" transform="matrix(0.9925 -0.122 0.122 0.9925 -26.1703 72.4677)" style="fill:#602F55;" width="1" height="25.325"/>
			
				<rect x="530.044" y="236.637" transform="matrix(0.7376 -0.6752 0.6752 0.7376 -18.9073 425.615)" style="fill:#602F55;" width="16.35" height="1.001"/>
			<path style="fill:#602F55;" d="M532.488,239.678c-1.027,0-1.863-0.836-1.863-1.863c0-1.027,0.836-1.863,1.863-1.863
				c1.027,0,1.863,0.836,1.863,1.863C534.352,238.843,533.516,239.678,532.488,239.678z M532.488,236.952
				c-0.476,0-0.863,0.388-0.863,0.863s0.388,0.863,0.863,0.863c0.476,0,0.863-0.388,0.863-0.863S532.964,236.952,532.488,236.952z"
				/>
			<path style="fill:#602F55;" d="M661.175,308.219c-1.027,0-1.863-0.836-1.863-1.863c0-1.027,0.836-1.863,1.863-1.863
				c1.027,0,1.863,0.836,1.863,1.863C663.038,307.383,662.202,308.219,661.175,308.219z M661.175,305.492
				c-0.476,0-0.863,0.388-0.863,0.863c0,0.476,0.388,0.863,0.863,0.863s0.863-0.388,0.863-0.863
				C662.038,305.88,661.65,305.492,661.175,305.492z"/>
			
				<rect x="629.8" y="259.703" transform="matrix(0.0956 -0.9954 0.9954 0.0956 332.0854 885.9263)" style="fill:#602F55;" width="47.605" height="1.001"/>
			<rect x="648.822" y="302.458" style="fill:#602F55;" width="15.123" height="1"/>
			<polygon style="fill:#7C4167;" points="605.494,196.698 603.799,197.891 601.674,202.419 610.587,210.602 612.227,205.579 
				616.758,205.579 605.279,198.938 			"/>
			<polygon style="fill:#7C4167;" points="628.462,196.698 630.158,197.891 632.283,202.419 623.37,210.602 621.73,205.579 
				616.758,205.579 628.677,198.938 			"/>
			<rect x="614.126" y="205.58" style="fill:#602F55;" width="1" height="78.318"/>
			<rect x="618.392" y="205.58" style="fill:#602F55;" width="1" height="78.318"/>
			<path style="fill:#602F55;" d="M589.205,350.841l-0.254-0.967l2.509-0.661l-3.185-1.653l0.461-0.887l4.335,2.25
				c0.184,0.095,0.289,0.293,0.267,0.499c-0.022,0.205-0.17,0.375-0.37,0.428L589.205,350.841z"/>
		</g>
		<g>
			<path style="fill:#FFAA99;" d="M530.802,217.979l-8.04-5.545c0,0-0.762,3.535,0.485,5.545c1.248,2.01,6.723,7.763,6.723,7.763
				L530.802,217.979z"/>
			
				<rect x="529.534" y="215.525" transform="matrix(0.559 -0.8292 0.8292 0.559 53.4804 535.3983)" style="fill:#602F55;" width="1.001" height="3.802"/>
		</g>
	</g>
	<g>
		<g>
			<path style="fill:#FF5C7B;" d="M25.588,348.421v45.745c0,17.029,13.626,30.883,30.375,30.883h7.289v8.988
				c0,12.703,10.128,23.001,22.623,23.001h77.217c12.494,0,22.623-10.298,22.623-23.001V304.714c0-2.862-2.282-5.182-5.097-5.182
				H67.875c-2.553,0-4.623,2.104-4.623,4.7v13.307h-7.289C39.215,317.538,25.588,331.392,25.588,348.421z M39.845,348.421
				c0-9.036,7.231-16.388,16.118-16.388h7.289v78.522h-7.289c-8.888,0-16.118-7.352-16.118-16.389V348.421z"/>
			<path style="fill:#602F55;" d="M72.978,332.533h-9.726v-1h9.726c3.654,0,6.628-3.026,6.628-6.747s-2.974-6.748-6.628-6.748
				h-9.726v-1h9.726c4.206,0,7.628,3.476,7.628,7.748C80.605,329.057,77.184,332.533,72.978,332.533z"/>
			<path style="fill:#602F55;" d="M72.978,425.55h-9.726v-1h9.726c3.654,0,6.628-3.026,6.628-6.747s-2.974-6.748-6.628-6.748h-9.726
				v-1h9.726c4.206,0,7.628,3.476,7.628,7.748C80.605,422.074,77.184,425.55,72.978,425.55z"/>
			<path style="fill:#FFFFFF;" d="M160.938,402.996c-0.104-0.256-30.014-31.006-22.459-42.258
				c7.555-11.252,18.733,5.688,18.733,5.688s9.468-21.65,19.715-12.11C187.173,363.855,160.938,402.996,160.938,402.996z"/>
			<path style="fill:#602F55;" d="M159.039,415.648c-19.038,0-34.526-18.376-34.526-40.964c0-22.587,15.488-40.963,34.526-40.963
				c9.954,0,19.426,5.099,25.986,13.987l-0.805,0.594c-6.37-8.631-15.548-13.581-25.182-13.581
				c-18.486,0-33.526,17.928-33.526,39.963c0,22.036,15.04,39.964,33.526,39.964c9.584,0,18.731-4.908,25.097-13.468l0.803,0.598
				C178.383,410.593,168.942,415.648,159.039,415.648z"/>
			<path style="fill:#602F55;" d="M160.691,375.484c-1.264-4.309-3.883-8.76-3.909-8.804l0.861-0.51
				c0.109,0.186,2.708,4.601,4.007,9.032L160.691,375.484z"/>
			<g>
				<path style="fill:#FFFFFF;" d="M95.668,358.695c-0.276,0-0.5-0.224-0.5-0.5v-58.866c0-0.276,0.224-0.5,0.5-0.5
					s0.5,0.224,0.5,0.5v58.866C96.168,358.471,95.944,358.695,95.668,358.695z"/>
				<path style="fill:#FFFFFF;" d="M101.374,344.255H89.963c-1.856,0-3.626,0.779-4.88,2.146l-3.29,3.586
					c-1.121,1.222-1.742,2.819-1.742,4.477v21.532c0,3.658,2.965,6.623,6.623,6.623h17.992c3.658,0,6.623-2.965,6.623-6.623v-21.532
					c0-1.658-0.622-3.255-1.742-4.477l-3.29-3.586C105,345.034,103.23,344.255,101.374,344.255z"/>
				<rect x="89.963" y="343.756" style="fill:#602F55;" width="11.411" height="1"/>
				<path style="fill:#602F55;" d="M95.717,374.502c-0.04,0-0.08-0.005-0.119-0.015c-0.31-0.075-7.621-1.92-10.518-7.52
					c-2.896-5.6-0.178-12.633-0.061-12.93c0.091-0.232,0.339-0.361,0.584-0.302c0.31,0.075,7.62,1.921,10.518,7.52
					c0.409,0.791,0.726,1.666,0.946,2.611c3.536-4.105,9.048-4.894,9.126-4.904c0.256-0.036,0.493,0.132,0.552,0.381
					c0.06,0.251,1.419,6.198-1.557,10.351c-2.974,4.153-9.042,4.779-9.299,4.805L95.717,374.502z M95.78,373.502h0.062
					c0.011-0.003,5.827-0.61,8.534-4.389c2.258-3.152,1.729-7.643,1.484-9.079c-2.01,0.391-9.719,2.414-10.616,10.59l-0.994-0.109
					c0.25-2.274,0.998-4.11,2.007-5.591c-0.193-1.188-0.537-2.267-1.024-3.208c-2.299-4.443-7.841-6.402-9.434-6.886
					c-0.525,1.579-2.129,7.234,0.17,11.679C88.532,371.465,95.107,373.323,95.78,373.502z"/>
			</g>
		</g>
		<g>
			<path style="fill:#FFFFFF;" d="M124.714,257.839c5.069,5.255,4.493,13.982,2.297,20.274c-0.958,3.121-1.963,5.864-2.429,8.63
				c-0.528,2.767-0.396,5.68,0.11,9.082l-0.777,0.444c-4.117-3.405-5.533-9.879-4.473-15.15c0.783-4.721,2.793-9.35,3.727-13.718
				c0.639-2.824,0.788-5.757,0.724-9.212L124.714,257.839L124.714,257.839z"/>
			<path style="fill:#FFFFFF;" d="M139.971,270.1c4.059,3.143,4.012,9.839,2.452,14.109c-0.656,2.122-1.36,3.841-1.799,5.548
				c-0.484,1.711-0.668,3.579-0.676,6.068l-0.777,0.444c-6.717-4.774-3.467-13.416-1.278-19.689
				c0.553-1.774,0.912-3.644,1.255-6.132L139.971,270.1L139.971,270.1z"/>
			<path style="fill:#FFFFFF;" d="M108.418,270.1c4.059,3.143,4.012,9.839,2.452,14.109c-0.656,2.122-1.36,3.841-1.799,5.548
				c-0.484,1.711-0.668,3.579-0.676,6.068l-0.776,0.444c-6.717-4.774-3.467-13.416-1.278-19.689
				c0.553-1.774,0.912-3.644,1.255-6.132L108.418,270.1L108.418,270.1z"/>
		</g>
	</g>
	<g>
		<path style="fill:#7C4167;" d="M268.127,441.14h10.144c1.622,0,2.936,1.315,2.936,2.936l0,0c0,1.622-1.315,2.936-2.936,2.936
			h-10.144c-1.622,0-2.936-1.315-2.936-2.936l0,0C265.19,442.454,266.505,441.14,268.127,441.14z"/>
		<path style="fill:#FFECCA;" d="M273.622,447.297l23.649,9.652c12.842-8.694,8.512-17.185,0-25.627l-23.649,9.652V447.297z"/>
		<path style="fill:#FFC549;" d="M297.271,431.322l304.23,0c1.165,0,2.11,0.945,2.11,2.11v21.384c0,1.178-0.955,2.132-2.132,2.132
			H297.271c-0.052-2.864,1.005-4.94,3-6.352c-4.203-4.665-3.881-8.945,0-12.924C298.017,436.371,297.047,434.234,297.271,431.322z"
			/>
		<rect x="300.275" y="450.098" style="fill:#602F55;" width="303.336" height="1"/>
		<rect x="300.275" y="437.174" style="fill:#602F55;" width="303.336" height="1"/>
	</g>
	<rect x="16.283" y="456.539" style="fill:#602F55;" width="717.434" height="1"/>
</g>
<g id="TEXTS">
	<text transform="matrix(1.0002 2.500525e-04 -2.500000e-04 1 300.9815 129.0525)"><tspan x="0" y="0" style="fill:#FF5C7B; font-family:'TitanOne'; font-size:30.6037px;">Wish</tspan><tspan x="80.854" y="0" style="fill:#602F55; font-family:'TitanOne'; font-size:30.6037px;"> </tspan><tspan x="87.739" y="0" style="fill:#979EED; font-family:'TitanOne'; font-size:30.6037px;">List</tspan></text>
	
		<text transform="matrix(1.0002 2.500525e-04 -2.500000e-04 1 265.8835 145.1389)" style="fill:#602F55; font-family:'ArchivoBlack-Regular'; font-size:12px;">1.</text>
	
		<text transform="matrix(1.0002 2.500525e-04 -2.500000e-04 1 265.8835 170.3352)" style="fill:#602F55; font-family:'ArchivoBlack-Regular'; font-size:12px;">2.</text>
	
		<text transform="matrix(1.0002 2.500525e-04 -2.500000e-04 1 265.8835 196.088)" style="fill:#602F55; font-family:'ArchivoBlack-Regular'; font-size:12px;">3.</text>
	
		<text transform="matrix(1.0002 2.500525e-04 -2.500000e-04 1 265.8835 221.2842)" style="fill:#602F55; font-family:'ArchivoBlack-Regular'; font-size:12px;">4.</text>
	
		<text transform="matrix(1.0002 2.500525e-04 -2.500000e-04 1 265.8835 246.7319)" style="fill:#602F55; font-family:'ArchivoBlack-Regular'; font-size:12px;">5.</text>
	
		<text transform="matrix(1.0002 2.500525e-04 -2.500000e-04 1 265.8835 271.9282)" style="fill:#602F55; font-family:'ArchivoBlack-Regular'; font-size:12px;">6.</text>
	
		<text transform="matrix(1.0002 2.500525e-04 -2.500000e-04 1 265.8835 297.681)" style="fill:#602F55; font-family:'ArchivoBlack-Regular'; font-size:12px;">7.</text>
	
		<text transform="matrix(1.0002 2.500525e-04 -2.500000e-04 1 265.8835 322.8772)" style="fill:#602F55; font-family:'ArchivoBlack-Regular'; font-size:12px;">8.</text>
	
		<text transform="matrix(1.0002 2.500525e-04 -2.500000e-04 1 265.8835 348.4026)" style="fill:#602F55; font-family:'ArchivoBlack-Regular'; font-size:12px;">9.</text>
	
		<text transform="matrix(1.0002 2.500525e-04 -2.500000e-04 1 265.8467 374.1544)" style="fill:#602F55; font-family:'ArchivoBlack-Regular'; font-size:12px;">10.</text>
	
		<text transform="matrix(1.0002 2.500525e-04 -2.500000e-04 1 265.8464 399.3506)" style="fill:#602F55; font-family:'ArchivoBlack-Regular'; font-size:12px;">11.</text>
</g>
</svg>
